<svg width="36" height="36" viewBox="0 0 36 36" fill="none" xmlns="http://www.w3.org/2000/svg">
<path d="M32.7398 15.1175L19.1398 3.4275C18.4798 2.8575 17.5198 2.8575 16.8598 3.4275L3.25982 15.1175C2.94982 15.3875 2.90982 15.8575 3.17982 16.1775C3.44982 16.4875 3.91982 16.5275 4.23982 16.2575L4.99982 15.5975V30.9375C4.99982 31.8975 5.78982 32.6875 6.74982 32.6875H13.8198H22.1798H29.2498C30.2098 32.6875 30.9998 31.8975 30.9998 30.9375V15.5975L31.7598 16.2475C31.8998 16.3675 32.0798 16.4275 32.2498 16.4275C32.4598 16.4275 32.6698 16.3375 32.8198 16.1675C33.0898 15.8575 33.0498 15.3875 32.7398 15.1175ZM14.4998 31.1775V23.6775C14.4998 21.7475 16.0698 20.1775 17.9998 20.1775C19.9298 20.1775 21.4998 21.7475 21.4998 23.6775V31.1775H14.4998ZM29.4998 30.9275C29.4998 31.0675 29.3898 31.1775 29.2498 31.1775H22.9998V23.6775C22.9998 20.9175 20.7598 18.6775 17.9998 18.6775C15.2398 18.6775 12.9998 20.9175 12.9998 23.6775V31.1775H6.74982C6.60982 31.1775 6.49982 31.0675 6.49982 30.9275V14.3075L17.8398 4.5575C17.9298 4.4775 18.0698 4.4775 18.1698 4.5575L29.5098 14.3075V30.9275H29.4998Z" fill="#333333"/>
</svg>
