<svg width="36" height="36" viewBox="0 0 36 36" fill="none" xmlns="http://www.w3.org/2000/svg">
<path opacity="0.6" d="M11.5 3.5L4 10.5V22L10 16.5V11L10.5 10H16L22.2489 3.5H11.5Z" fill="#2CB3FF"/>
<path fill-rule="evenodd" clip-rule="evenodd" d="M32.53 3.47C32.62 3.56 32.68 3.67 32.71 3.79C32.89 4.06 33 4.39 33 4.75V32.25C33 32.66 32.66 33 32.25 33C31.84 33 31.5 32.66 31.5 32.25V27.81L26.53 32.78C26.46 32.85 26.38 32.9 26.29 32.94C26.19 32.98 26.1 33 26 33C25.9 33 25.81 32.98 25.72 32.95C25.53 32.87 25.39 32.72 25.31 32.54C25.27 32.44 25.25 32.35 25.25 32.25V10.75C25.25 10.61 25.14 10.5 25 10.5H14.75V18.25C14.75 18.66 14.41 19 14 19C13.59 19 13.25 18.66 13.25 18.25V10.5H11C10.86 10.5 10.75 10.61 10.75 10.75V32.25C10.75 32.66 10.41 33 10 33C9.59 33 9.25 32.66 9.25 32.25V27.81L4.28 32.78C4.21 32.85 4.13 32.9 4.04 32.94C3.94 32.98 3.85 33 3.75 33C3.65 33 3.56 32.98 3.47 32.95C3.28 32.87 3.14 32.72 3.06 32.54C3.02 32.44 3 32.35 3 32.25V4.75C3 3.79 3.79 3 4.75 3H31.25C31.61 3 31.94 3.11 32.21 3.29C32.33 3.33 32.44 3.38 32.53 3.47ZM31.5 5.56L26.7 10.36C26.73 10.48 26.75 10.61 26.75 10.75V19.19L31.5 14.44V5.56ZM9.44 4.5H4.75C4.61 4.5 4.5 4.61 4.5 4.75V9.44L9.44 4.5ZM4.5 22.55V30.44L9.25 25.69V17.81L4.53 22.53C4.525 22.535 4.52 22.5375 4.515 22.54C4.51 22.5425 4.505 22.545 4.5 22.55ZM9.25 15.69V10.75C9.25 9.79 10.04 9 11 9H15.94L20.44 4.5H11.56L4.5 11.56V20.44L9.25 15.69ZM18.06 9H25C25.27 9 25.53 9.07 25.76 9.18L30.44 4.5H22.55C22.545 4.505 22.5425 4.51 22.54 4.515C22.5375 4.52 22.535 4.525 22.53 4.53L18.06 9ZM26.75 30.44L31.47 25.72C31.475 25.715 31.48 25.7125 31.485 25.71C31.49 25.7075 31.495 25.705 31.5 25.7V16.56L26.75 21.31V30.44ZM21.25 23.75C21.25 23.34 21.59 23 22 23C22.41 23 22.75 23.34 22.75 23.75V32.25C22.75 32.66 22.41 33 22 33C21.59 33 21.25 32.66 21.25 32.25V23.75Z" fill="#333333"/>
</svg>
