<svg width="36" height="36" viewBox="0 0 36 36" fill="none" xmlns="http://www.w3.org/2000/svg">
<path opacity="0.6" d="M15 25.5V32H21V25.5L19 23.5H17L15 25.5Z" fill="#2CB3FF"/>
<path opacity="0.6" d="M4 7C4 5.34315 5.34315 4 7 4H29C30.6569 4 32 5.34315 32 7V8H4V7Z" fill="#2CB3FF"/>
<path fill-rule="evenodd" clip-rule="evenodd" d="M27.75 3H8.25C5.36 3 3 5.36 3 8.25V9V31.25C3 32.21 3.79 33 4.75 33H14H22H31.25C32.21 33 33 32.21 33 31.25V9V8.25C33 5.36 30.64 3 27.75 3ZM8.25 4.5H27.75C29.56 4.5 31.08 5.79 31.42 7.5H4.58C4.92 5.79 6.44 4.5 8.25 4.5ZM15.25 9V11.5H8.75V9H15.25ZM16.75 9H19.25V11.5H16.75V9ZM20.75 9H27.25V11.5H20.75V9ZM7.25 9V11.5H4.5V9H7.25ZM15.5 31.5V27C15.5 25.62 16.62 24.5 18 24.5C19.38 24.5 20.5 25.62 20.5 27V31.5H15.5ZM31.25 31.5H22V27C22 24.79 20.21 23 18 23C15.79 23 14 24.79 14 27V31.5H4.75C4.61 31.5 4.5 31.39 4.5 31.25V13H7.25H8.75H15.25H16.75H19.25H20.75H27.25H28.75H31.5V31.25C31.5 31.39 31.39 31.5 31.25 31.5ZM31.5 11.5H28.75V9H31.5V11.5ZM15.25 15H8.75C7.79 15 7 15.79 7 16.75V19.25C7 20.21 7.79 21 8.75 21H15.25C16.21 21 17 20.21 17 19.25V16.75C17 15.79 16.21 15 15.25 15ZM8.5 19.25V16.75C8.5 16.61 8.61 16.5 8.75 16.5H11.25V19.5H8.75C8.61 19.5 8.5 19.39 8.5 19.25ZM15.5 19.25C15.5 19.39 15.39 19.5 15.25 19.5H12.75V16.5H15.25C15.39 16.5 15.5 16.61 15.5 16.75V19.25ZM20.75 15H27.25C28.21 15 29 15.79 29 16.75V19.25C29 20.21 28.21 21 27.25 21H20.75C19.79 21 19 20.21 19 19.25V16.75C19 15.79 19.79 15 20.75 15ZM20.5 16.75V19.25C20.5 19.39 20.61 19.5 20.75 19.5H23.25V16.5H20.75C20.61 16.5 20.5 16.61 20.5 16.75ZM27.25 19.5C27.39 19.5 27.5 19.39 27.5 19.25V16.75C27.5 16.61 27.39 16.5 27.25 16.5H24.75V19.5H27.25Z" fill="#333333"/>
</svg>
