<svg width="36" height="36" viewBox="0 0 36 36" fill="none" xmlns="http://www.w3.org/2000/svg">
<path opacity="0.6" d="M14 22.5V31.5L22 32L22.5 26L22 21.5L19.5 19.5H16.5C16.1 19.5 14.6667 21.5 14 22.5Z" fill="#2CB3FF"/>
<path d="M32.7398 15.2451L19.1398 3.432C18.4798 2.856 17.5198 2.856 16.8598 3.432L3.25982 15.2451C2.94982 15.5179 2.90982 15.9928 3.17982 16.3162C3.44982 16.6295 3.91982 16.6699 4.23982 16.3971L4.99982 15.7301V31.2316C4.99982 32.2017 5.78982 33 6.74982 33H13.8198H22.1798H29.2498C30.2098 33 30.9998 32.2017 30.9998 31.2316V15.7301L31.7598 16.3869C31.8998 16.5082 32.0798 16.5688 32.2498 16.5688C32.4598 16.5688 32.6698 16.4779 32.8198 16.3061C33.0898 15.9928 33.0498 15.5179 32.7398 15.2451ZM14.4998 31.4741V23.8952C14.4998 21.9448 16.0698 20.3583 17.9998 20.3583C19.9298 20.3583 21.4998 21.9448 21.4998 23.8952V31.4741H14.4998ZM29.4998 31.2215C29.4998 31.3629 29.3898 31.4741 29.2498 31.4741H22.9998V23.8952C22.9998 21.1061 20.7598 18.8425 17.9998 18.8425C15.2398 18.8425 12.9998 21.1061 12.9998 23.8952V31.4741H6.74982C6.60982 31.4741 6.49982 31.3629 6.49982 31.2215V14.4265L17.8398 4.57389C17.9298 4.49305 18.0698 4.49305 18.1698 4.57389L29.5098 14.4265V31.2215H29.4998Z" fill="#333333"/>
</svg>
