<svg width="36" height="36" viewBox="0 0 36 36" fill="none" xmlns="http://www.w3.org/2000/svg">
<g opacity="0.6">
<path d="M20 15C20 16.1046 19.1046 17 18 17C16.8954 17 16 16.1046 16 15C16 13.8954 16.8954 13 18 13C19.1046 13 20 13.8954 20 15Z" fill="#2CB3FF"/>
<path d="M10 10C10 6.13401 13.134 3 17 3H19C22.866 3 26 6.13401 26 10H10Z" fill="#2CB3FF"/>
</g>
<path fill-rule="evenodd" clip-rule="evenodd" d="M18.0002 3.5C14.6411 3.5 11.7662 5.79545 11.0833 8.95828L11.0203 9.25H24.9801L24.9171 8.95837C24.2342 5.79554 21.3593 3.5 18.0002 3.5ZM8.85989 19.25L10.6962 10.75H25.3042L27.1405 19.25H8.85989ZM18.0021 24.5241L10.9795 20.75H25.0214L18.0021 24.5241ZM27.5399 21.0989L19.5863 25.3755L29.049 30.4609L29.049 30.4609C29.097 30.4852 29.1455 30.4969 29.1924 30.4975C29.2619 30.4982 29.3282 30.4748 29.3853 30.4323C29.4805 30.3614 29.5187 30.2633 29.4958 30.1554L29.4964 30.1552L27.5399 21.0989ZM18.0023 26.2271L28.3626 31.795L28.3708 31.7991C28.6352 31.933 28.9105 31.9951 29.179 31.9966C30.2517 32.0032 31.2181 31.0448 30.9639 29.8446L26.3833 8.64163C25.5461 4.76451 22.0411 2 18.0002 2C13.9593 2 10.4542 4.7646 9.61708 8.64172L5.03709 29.8416L5.0361 29.8463C5.01619 29.9414 5.00379 30.0348 4.99835 30.1262C4.98948 30.2751 4.99907 30.4187 5.0248 30.5556C5.23602 31.6791 6.53472 32.3513 7.6356 31.8008L7.64556 31.7958L18.0023 26.2271ZM16.4182 25.3758L8.46041 21.0991L6.50428 30.1536V30.1536L6.50392 30.1554L6.50297 30.1602C6.49784 30.1873 6.49632 30.2133 6.4982 30.2381C6.5042 30.3169 6.54458 30.3835 6.61292 30.4339C6.70478 30.5016 6.82892 30.5238 6.95728 30.4628L16.4182 25.3758ZM16.5 15C16.5 14.1716 17.1716 13.5 18 13.5C18.8284 13.5 19.5 14.1716 19.5 15C19.5 15.8284 18.8284 16.5 18 16.5C17.1716 16.5 16.5 15.8284 16.5 15ZM18 12C16.3431 12 15 13.3431 15 15C15 16.6569 16.3431 18 18 18C19.6569 18 21 16.6569 21 15C21 13.3431 19.6569 12 18 12ZM4.75 32.5C4.33579 32.5 4 32.8358 4 33.25C4 33.6642 4.33579 34 4.75 34H31.25C31.6642 34 32 33.6642 32 33.25C32 32.8358 31.6642 32.5 31.25 32.5H4.75Z" fill="#333333"/>
</svg>
