<svg width="21" height="24" viewBox="0 0 21 24" fill="none" xmlns="http://www.w3.org/2000/svg">
<path fill-rule="evenodd" clip-rule="evenodd" d="M14.8768 0C15.0332 1.42312 14.4609 2.82211 13.6168 3.84724C12.7398 4.85628 11.3316 5.63618 9.9646 5.53568C9.79167 4.16884 10.4834 2.71759 11.2575 1.82915C12.1345 0.824121 13.6621 0.0522613 14.8768 0ZM19.3456 8.19561C19.1337 8.32299 16.6765 9.79947 16.7007 12.768C16.7336 16.3941 19.9535 17.6001 20.0029 17.6082C19.9865 17.6926 19.5006 19.3489 18.2942 21.0172C17.2771 22.4926 16.2272 23.9358 14.5431 23.9599C13.7435 23.9776 13.205 23.7529 12.6438 23.5187C12.0576 23.2742 11.4466 23.0192 10.4874 23.0192C9.47743 23.0192 8.83948 23.2821 8.22441 23.5356C7.691 23.7554 7.17481 23.9681 6.4481 23.9961C4.83816 24.0564 3.6235 22.4202 2.57353 20.9609C0.48184 17.978 -1.14046 12.5509 1.0377 8.86444C2.08767 7.04735 4.02289 5.88554 6.08165 5.85338C6.98499 5.83974 7.85542 6.18085 8.6185 6.47989C9.20495 6.70971 9.728 6.91469 10.1539 6.91469C10.5275 6.91469 11.0331 6.71819 11.6225 6.48908C12.553 6.12743 13.6924 5.68455 14.8519 5.80514C15.6384 5.83328 17.8989 6.11871 19.3565 8.18906C19.354 8.19056 19.3504 8.19274 19.3456 8.19561Z" fill="white"/>
</svg>
