<svg width="32" height="32" viewBox="0 0 32 32" fill="none" xmlns="http://www.w3.org/2000/svg">
<path fill-rule="evenodd" clip-rule="evenodd" d="M16.005 2C7.71251 2 1 7.36192 1 13.9753C1 18.2282 3.78766 21.9622 7.96411 24.0887L6.54512 29.4201C6.4948 29.5828 6.53506 29.7558 6.65582 29.8779C6.73633 29.9593 6.84703 30 6.95773 30C7.04831 30 7.13888 29.9593 7.21939 29.8983L13.2979 25.7471C14.1835 25.8794 15.0792 25.9506 15.995 25.9506C24.2774 25.9506 31 20.5887 31 13.9651C31 7.36192 24.2875 2 16.005 2ZM21.1274 11.3096C21.1274 11.0349 21.208 10.8212 21.3589 10.6482C21.5199 10.4854 21.7313 10.4041 21.9929 10.4041C22.2143 10.4041 22.3955 10.4651 22.5464 10.5872C22.6974 10.7093 22.798 10.8721 22.8383 11.0756C22.8584 11.1468 22.8584 11.2282 22.8584 11.3096V13.9549L25.5756 10.8009C25.6964 10.6686 25.8071 10.5668 25.9077 10.4956C25.9983 10.4346 26.1191 10.4041 26.2599 10.4041C26.4512 10.4041 26.6222 10.4549 26.7732 10.5668C26.9342 10.6686 27.0248 10.811 27.065 10.9942C27.065 10.9976 27.0662 11.0021 27.0677 11.0081C27.0706 11.0202 27.0751 11.0383 27.0751 11.0654V11.1366C27.0751 11.2587 27.0449 11.3706 26.9946 11.4724C26.9443 11.5741 26.8738 11.6657 26.7933 11.7674L25.0221 13.7209L27.1254 17.0785L27.1858 17.1802C27.3267 17.4041 27.4072 17.577 27.4374 17.6889C27.4374 17.6932 27.4391 17.6991 27.4412 17.7061C27.444 17.716 27.4475 17.7279 27.4475 17.7398V17.8009C27.4475 18.1163 27.3569 18.3401 27.1858 18.4724C27.0147 18.6046 26.8034 18.6759 26.5619 18.6759C26.3807 18.6759 26.2398 18.6453 26.1291 18.5843C26.0184 18.5029 25.8977 18.3808 25.787 18.1977L23.7943 14.9622L22.8483 15.9593L22.8584 17.7703C22.8584 18.045 22.7779 18.2689 22.6169 18.4317C22.4659 18.5945 22.2546 18.6759 21.9929 18.6759C21.7715 18.6759 21.5904 18.6148 21.4394 18.4927C21.2784 18.3706 21.1878 18.2078 21.1476 17.9942C21.138 17.9602 21.1329 17.9262 21.1303 17.8911C21.1071 18.0761 21.0276 18.2204 20.8859 18.3299C20.7149 18.4622 20.5035 18.5334 20.2419 18.5334H16.639C16.3673 18.5334 16.156 18.4825 15.9849 18.3604C15.8138 18.2485 15.7132 18.0756 15.6528 17.8212C15.6327 17.7195 15.6226 17.5974 15.6125 17.4651L15.6327 11.3096C15.6327 11.0349 15.7132 10.8212 15.8641 10.6482C16.0151 10.4854 16.2264 10.4041 16.4982 10.4041C16.7196 10.4041 16.9007 10.4651 17.0517 10.5872C17.2026 10.7093 17.3033 10.8721 17.3435 11.0857C17.3536 11.157 17.3636 11.2384 17.3536 11.3198V17.0073H20.2419C20.4733 17.0073 20.6645 17.0581 20.8256 17.1599C20.9866 17.2616 21.0872 17.4142 21.1174 17.6075C21.1209 17.6251 21.1244 17.644 21.1274 17.6632V11.3096ZM4.63303 12.0829H6.26336L6.25329 17.7602C6.25329 17.8416 6.25329 17.923 6.27342 17.9942C6.31367 18.2079 6.41431 18.3707 6.56527 18.4928C6.71622 18.6149 6.89737 18.6759 7.11877 18.6759C7.38043 18.6759 7.60183 18.5945 7.75279 18.4317C7.91381 18.2689 7.99432 18.0451 7.99432 17.7704V12.0829H9.62464C9.87624 12.0829 10.0976 12.0117 10.2587 11.8794C10.4297 11.7471 10.5103 11.5538 10.5103 11.3096C10.5103 11.2588 10.5103 11.1977 10.5002 11.1469C10.4599 10.9535 10.3593 10.8111 10.1882 10.6992C10.0373 10.5974 9.83598 10.5466 9.61458 10.5466H4.62297C4.37137 10.5466 4.14997 10.6178 3.97889 10.7501C3.8078 10.8823 3.72729 11.0655 3.72729 11.3096C3.73736 11.3707 3.74742 11.4317 3.74742 11.4928C3.78768 11.6759 3.88831 11.8285 4.04933 11.9303C4.21035 12.032 4.41163 12.0829 4.63303 12.0829ZM10.9328 10.9636C11.0033 10.7602 11.1039 10.6177 11.2448 10.5363C11.3857 10.4549 11.5568 10.4041 11.7782 10.4041H12.1908C12.4122 10.4041 12.6034 10.4549 12.7544 10.5465C12.9053 10.6381 13.0261 10.811 13.1066 11.0756L15.1898 17.1904C15.2602 17.3837 15.3005 17.5465 15.3307 17.6788C15.3508 17.7703 15.3609 17.8416 15.3609 17.8924C15.3609 18.1163 15.2804 18.2994 15.1193 18.452C14.9583 18.6148 14.7671 18.686 14.5457 18.686C14.1432 18.686 13.8916 18.5232 13.7708 18.1875L13.328 16.8546H10.5504L10.0975 18.1773C9.98683 18.5131 9.73524 18.6759 9.32262 18.6759C9.12135 18.6759 8.95026 18.625 8.80937 18.5131C8.66848 18.4113 8.58797 18.2587 8.54772 18.0654C8.53765 18.0145 8.52759 17.9433 8.52759 17.8823C8.52759 17.7907 8.53765 17.6889 8.57791 17.5567C8.6081 17.4346 8.64835 17.3023 8.69867 17.1802L10.9328 10.9636ZM11.9794 12.3779H11.9593L10.9429 15.5828H12.9657L11.9794 12.3779Z" fill="#381E1E"/>
</svg>
