<svg width="29" height="32" viewBox="0 0 29 32" fill="none" xmlns="http://www.w3.org/2000/svg">
<path fill-rule="evenodd" clip-rule="evenodd" d="M26.9992 30.5H28.2492C28.6692 30.5 28.9992 30.84 28.9992 31.25C28.9992 31.66 28.6592 32 28.2492 32H26.9992H2.99921H1.74921C1.33921 32 0.999213 31.67 0.999213 31.25C0.999213 30.83 1.33921 30.5 1.74921 30.5H2.99921V12H2.77921C2.19921 12 1.64921 11.72 1.31921 11.25C0.989213 10.78 0.909213 10.21 1.09921 9.67001L2.70921 5.17001C2.95921 4.47001 3.62921 4.00001 4.38921 4.00001H10.1492C10.6392 1.89001 12.3692 0.230006 14.5192 0.0200064C15.9292 -0.0999936 17.3292 0.350006 18.3692 1.30001C19.1592 2.02001 19.6892 2.97001 19.8992 4.00001H25.6092C26.3692 4.00001 27.0392 4.47001 27.2892 5.17001L28.8992 9.67001C29.0892 10.21 29.0092 10.78 28.6792 11.25C28.3492 11.72 27.7992 12 27.2192 12H26.9992V30.5ZM14.6492 1.51001C12.8892 1.68001 11.4992 3.29001 11.4992 5.18001V6.75001C11.4992 6.89001 11.6092 7.00001 11.7492 7.00001H18.2492C18.3892 7.00001 18.4992 6.89001 18.4992 6.75001V5.00001C18.4992 4.01001 18.0792 3.07001 17.3492 2.41001C16.6992 1.82001 15.8692 1.50001 14.9992 1.50001C14.8892 1.50001 14.7692 1.50001 14.6492 1.51001ZM2.50921 10.17C2.47921 10.26 2.50921 10.34 2.53921 10.38C2.56921 10.42 2.63921 10.5 2.77921 10.5H27.2192C27.3592 10.5 27.4392 10.42 27.4592 10.38C27.4892 10.33 27.5192 10.26 27.4892 10.17L25.8792 5.67001C25.8392 5.57001 25.7292 5.50001 25.6092 5.50001H19.9992V6.75001C19.9992 7.71001 19.2192 8.50001 18.2492 8.50001H11.7492C10.7892 8.50001 9.99921 7.71001 9.99921 6.75001V5.50001H4.38921C4.26921 5.50001 4.15921 5.57001 4.11921 5.67001L2.50921 10.17ZM4.49921 12V30.5H25.4992V12H4.49921ZM10.91 14H9.09C7.94 14 7 14.94 7 16.09V17.91C7 19.06 7.94 20 9.09 20H10.91C12.06 20 13 19.06 13 17.91V16.09C13 14.94 12.06 14 10.91 14ZM11.5 17.91C11.5 18.24 11.23 18.5 10.91 18.5H9.09C8.76 18.5 8.5 18.23 8.5 17.91V16.09C8.5 15.76 8.77 15.5 9.09 15.5H10.91C11.24 15.5 11.5 15.77 11.5 16.09V17.91ZM20.91 14H19.09C17.94 14 17 14.94 17 16.09V17.91C17 19.06 17.94 20 19.09 20H20.91C22.06 20 23 19.06 23 17.91V16.09C23 14.94 22.06 14 20.91 14ZM21.5 17.91C21.5 18.24 21.23 18.5 20.91 18.5H19.09C18.76 18.5 18.5 18.23 18.5 17.91V16.09C18.5 15.76 18.77 15.5 19.09 15.5H20.91C21.24 15.5 21.5 15.77 21.5 16.09V17.91ZM9.09 22H10.91C12.06 22 13 22.94 13 24.09V25.91C13 27.06 12.06 28 10.91 28H9.09C7.94 28 7 27.06 7 25.91V24.09C7 22.94 7.94 22 9.09 22ZM10.91 26.5C11.23 26.5 11.5 26.24 11.5 25.91V24.09C11.5 23.77 11.24 23.5 10.91 23.5H9.09C8.77 23.5 8.5 23.76 8.5 24.09V25.91C8.5 26.23 8.76 26.5 9.09 26.5H10.91ZM20.91 22H19.09C17.94 22 17 22.94 17 24.09V25.91C17 27.06 17.94 28 19.09 28H20.91C22.06 28 23 27.06 23 25.91V24.09C23 22.94 22.06 22 20.91 22ZM21.5 25.91C21.5 26.24 21.23 26.5 20.91 26.5H19.09C18.76 26.5 18.5 26.23 18.5 25.91V24.09C18.5 23.76 18.77 23.5 19.09 23.5H20.91C21.24 23.5 21.5 23.77 21.5 24.09V25.91Z" fill="#333333"/>
</svg>
