<svg width="32" height="32" viewBox="0 0 32 32" fill="none" xmlns="http://www.w3.org/2000/svg">
<path fill-rule="evenodd" clip-rule="evenodd" d="M25 16H30.24C31.21 16 32 16.79 32 17.76V30.24C32 31.21 31.21 32 30.24 32H25H23.5H20H12H8.5H7H1.76C0.79 32 0 31.21 0 30.23V17.76C0 16.79 0.79 16 1.76 16H7V15.03C7 14.44 7.29 13.9 7.78 13.58L15.25 8.6V6V2.09V1.75C15.25 0.79 16.04 0 17 0H23.25C24.21 0 25 0.79 25 1.75V4.25C25 5.21 24.21 6 23.25 6H16.75V8.6L24.22 13.57C24.71 13.9 25 14.44 25 15.03V16ZM17 1.5C16.86 1.5 16.75 1.61 16.75 1.75V2.09V4.5H23.25C23.39 4.5 23.5 4.39 23.5 4.25V1.75C23.5 1.61 23.39 1.5 23.25 1.5H17ZM1.76 30.5H7V17.5H1.76C1.62 17.5 1.5 17.62 1.5 17.76V30.24C1.5 30.38 1.62 30.5 1.76 30.5ZM13.5 26V30.5H18.5V26C18.5 24.62 17.38 23.5 16 23.5C14.62 23.5 13.5 24.62 13.5 26ZM20 30.5H23.5V16V15.03C23.5 14.94 23.46 14.87 23.39 14.82L16 9.9L8.61 14.82C8.54 14.87 8.5 14.95 8.5 15.03V16V30.5H12V26C12 23.79 13.79 22 16 22C18.21 22 20 23.79 20 26V30.5ZM30.24 30.5C30.38 30.5 30.5 30.38 30.5 30.24V17.76C30.5 17.62 30.38 17.5 30.24 17.5H25V30.5H30.24ZM13 16C13 14.35 14.35 13 16 13C17.65 13 19 14.35 19 16C19 17.65 17.65 19 16 19C14.35 19 13 17.65 13 16ZM14.5 16C14.5 16.83 15.17 17.5 16 17.5C16.83 17.5 17.5 16.83 17.5 16C17.5 15.17 16.83 14.5 16 14.5C15.17 14.5 14.5 15.17 14.5 16Z" fill="#333333"/>
</svg>
