<svg width="32" height="28" viewBox="0 0 32 28" fill="none" xmlns="http://www.w3.org/2000/svg">
<path d="M30.25 0H21.75C20.79 0 20 0.79 20 1.75V4.25C20 5.21 20.79 6 21.75 6H22.18L21.93 10.59L16.75 8.17C16.28 7.95 15.74 7.95 15.27 8.17L10.09 10.59L9.82 6H10.25C11.21 6 12 5.21 12 4.25V1.75C12 0.79 11.21 0 10.25 0H1.75C0.79 0 0 0.79 0 1.75V4.25C0 5.21 0.79 6 1.75 6H2.18L1.06 26.15C1.03 26.63 1.21 27.1 1.54 27.45C1.87 27.8 2.33 28 2.81 28H5H10.25H12H20H22.81H27H29.19C29.67 28 30.13 27.8 30.46 27.45C30.79 27.1 30.96 26.63 30.94 26.15L29.82 6H30.25C31.21 6 32 5.21 32 4.25V1.75C32 0.79 31.21 0 30.25 0ZM1.5 4.25V1.75C1.5 1.61 1.61 1.5 1.75 1.5H10.25C10.39 1.5 10.5 1.61 10.5 1.75V4.25C10.5 4.39 10.39 4.5 10.25 4.5H1.75C1.61 4.5 1.5 4.39 1.5 4.25ZM2.81 26.5C2.72 26.5 2.66 26.45 2.63 26.42C2.6 26.39 2.56 26.33 2.56 26.23L3.68 6H8.32L8.61 11.27L6.05 12.47C5.41 12.77 5 13.44 5 14.19V26.5H2.81ZM13.5 26.5V22C13.5 20.62 14.62 19.5 16 19.5C17.38 19.5 18.5 20.62 18.5 22V26.5H13.5ZM22.81 26.5H20V22C20 19.79 18.21 18 16 18C13.79 18 12 19.79 12 22V26.5H10.25H6.5V14.19C6.5 14 6.6 13.87 6.69 13.83L15.9 9.52C15.97 9.49 16.05 9.49 16.11 9.52L25.32 13.83C25.41 13.87 25.51 14 25.51 14.19V26.5H22.81ZM29.44 26.24C29.45 26.33 29.4 26.4 29.37 26.43C29.34 26.46 29.28 26.51 29.19 26.51H27V14.19C27 13.44 26.59 12.77 25.95 12.47L23.39 11.27L23.68 6H28.32L29.44 26.24ZM30.5 4.25C30.5 4.39 30.39 4.5 30.25 4.5H21.75C21.61 4.5 21.5 4.39 21.5 4.25V1.75C21.5 1.61 21.61 1.5 21.75 1.5H30.25C30.39 1.5 30.5 1.61 30.5 1.75V4.25Z" fill="#333333"/>
</svg>
