<svg width="30" height="30" viewBox="0 0 30 30" fill="none" xmlns="http://www.w3.org/2000/svg">
<path d="M29.7398 12.2451L16.1398 0.432C15.4798 -0.144 14.5198 -0.144 13.8598 0.432L0.259822 12.2451C-0.0501779 12.5179 -0.0901779 12.9928 0.179822 13.3162C0.449822 13.6295 0.919822 13.6699 1.23982 13.3971L1.99982 12.7301V28.2316C1.99982 29.2017 2.78982 30 3.74982 30H10.8198H19.1798H26.2498C27.2098 30 27.9998 29.2017 27.9998 28.2316V12.7301L28.7598 13.3869C28.8998 13.5082 29.0798 13.5688 29.2498 13.5688C29.4598 13.5688 29.6698 13.4779 29.8198 13.3061C30.0898 12.9928 30.0498 12.5179 29.7398 12.2451ZM11.4998 28.4741V20.8952C11.4998 18.9448 13.0698 17.3583 14.9998 17.3583C16.9298 17.3583 18.4998 18.9448 18.4998 20.8952V28.4741H11.4998ZM26.4998 28.2215C26.4998 28.3629 26.3898 28.4741 26.2498 28.4741H19.9998V20.8952C19.9998 18.1061 17.7598 15.8425 14.9998 15.8425C12.2398 15.8425 9.99982 18.1061 9.99982 20.8952V28.4741H3.74982C3.60982 28.4741 3.49982 28.3629 3.49982 28.2215V11.4265L14.8398 1.57389C14.9298 1.49305 15.0698 1.49305 15.1698 1.57389L26.5098 11.4265V28.2215H26.4998Z" fill="#333333"/>
</svg>
