<svg width="36" height="36" viewBox="0 0 36 36" fill="none" xmlns="http://www.w3.org/2000/svg">
<path opacity="0.5" d="M13.5 4H4L3.5 14L5 17L9.5 18.5L13 15.5L13.5 4Z" fill="#2CB3FF"/>
<path opacity="0.5" d="M32 4H22.5L22 14L23.5 17L28 18.5L31.5 15.5L32 4Z" fill="#2CB3FF"/>
<path fill-rule="evenodd" clip-rule="evenodd" d="M31.25 3C32.21 3 33 3.79 33 4.75V13.5C33 14.67 32.63 15.76 32 16.65V31.25C32 32.21 31.21 33 30.25 33H5.75C4.79 33 4 32.21 4 31.25V16.65C3.37 15.76 3 14.67 3 13.5V4.75C3 3.79 3.79 3 4.75 3H12.5H14H22H23.5H31.25ZM31.25 4.5H23.5V13.5C23.5 15.71 25.29 17.5 27.5 17.5C29.71 17.5 31.5 15.71 31.5 13.5V4.75C31.5 4.61 31.39 4.5 31.25 4.5ZM22 4.5H14V13.5C14 15.71 15.79 17.5 18 17.5C20.21 17.5 22 15.71 22 13.5V4.5ZM4.75 4.5C4.61 4.5 4.5 4.61 4.5 4.75V13.5C4.5 15.71 6.29 17.5 8.5 17.5C10.71 17.5 12.5 15.71 12.5 13.5V4.5H4.75ZM5.5 31.25C5.5 31.39 5.61 31.5 5.75 31.5H30.25C30.39 31.5 30.5 31.39 30.5 31.25V18.1C29.64 18.67 28.61 19 27.5 19C25.47 19 23.7 17.9 22.75 16.26C21.8 17.9 20.03 19 18 19C15.97 19 14.2 17.9 13.25 16.26C12.3 17.9 10.53 19 8.5 19C7.39 19 6.36 18.66 5.5 18.1V31.25ZM14 28.25C14 27.84 14.34 27.5 14.75 27.5H21.25C21.66 27.5 22 27.84 22 28.25C22 28.66 21.66 29 21.25 29H14.75C14.34 29 14 28.66 14 28.25Z" fill="#333333"/>
</svg>
