<svg width="36" height="36" viewBox="0 0 36 36" fill="none" xmlns="http://www.w3.org/2000/svg">
<g opacity="0.6">
<path d="M18 18H6V32H18V18Z" fill="#2CB3FF"/>
<path d="M30 4H18V18H30V4Z" fill="#2CB3FF"/>
</g>
<path d="M29.25 3H6.75C5.79 3 5 3.79 5 4.75V31.25C5 32.21 5.79 33 6.75 33H29.25C30.21 33 31 32.21 31 31.25V4.75C31 3.79 30.21 3 29.25 3ZM29.5 4.75V17.25H18.75V4.5H29.25C29.39 4.5 29.5 4.61 29.5 4.75ZM6.75 4.5H17.25V17.25H6.5V4.75C6.5 4.61 6.61 4.5 6.75 4.5ZM6.5 31.25V18.75H17.25V31.5H6.75C6.61 31.5 6.5 31.39 6.5 31.25ZM29.25 31.5H18.75V18.75H29.5V31.25C29.5 31.39 29.39 31.5 29.25 31.5Z" fill="#001D1F"/>
</svg>
