<svg width="20" height="20" viewBox="0 0 20 20" fill="none" xmlns="http://www.w3.org/2000/svg">
<rect width="20" height="20" rx="4" fill="#151515"/>
<path fill-rule="evenodd" clip-rule="evenodd" d="M12.4368 4C12.515 4.71163 12.2289 5.41119 11.8068 5.9238C11.3683 6.42837 10.6642 6.81836 9.98072 6.7681C9.89425 6.08462 10.2401 5.35892 10.6272 4.91466C11.0657 4.4121 11.8295 4.02613 12.4368 4ZM14.6714 8.09811C14.5654 8.1618 13.3368 8.90011 13.3489 10.3845C13.3654 12.1977 14.9753 12.8008 15 12.8048C14.9918 12.847 14.7488 13.6753 14.1456 14.5095C13.6371 15.2473 13.1121 15.969 12.2701 15.981C11.8703 15.9899 11.601 15.8775 11.3204 15.7604C11.0273 15.6381 10.7218 15.5106 10.2422 15.5106C9.73725 15.5106 9.41827 15.6421 9.11074 15.7688C8.84404 15.8787 8.58594 15.9851 8.22259 15.9991C7.41761 16.0293 6.81028 15.2111 6.2853 14.4814C5.23946 12.9898 4.42831 10.2759 5.51739 8.43256C6.04237 7.52393 7.00998 6.94297 8.03936 6.92689C8.49103 6.92007 8.92624 7.09064 9.30779 7.24017C9.60101 7.35509 9.86254 7.45759 10.0755 7.45759C10.2623 7.45759 10.5151 7.35933 10.8098 7.24477C11.275 7.06392 11.8447 6.84246 12.4245 6.90276C12.8177 6.91684 13.948 7.05956 14.6768 8.09484C14.6756 8.09559 14.6737 8.09668 14.6714 8.09811Z" fill="white"/>
</svg>
