<svg width="251" height="268" viewBox="0 0 251 268" fill="none" xmlns="http://www.w3.org/2000/svg">
<path d="M179.539 142.491L166.556 148.016L170.729 167.354L173.975 182.548L172.12 197.281L170.729 204.188L177.221 201.886L186.494 184.389L202.723 163.67L212.46 149.857L213.851 141.109L210.142 138.347H205.969C204.268 138.654 200.775 139.36 200.404 139.728C200.034 140.096 199.632 133.129 199.477 129.599L197.622 119.93L187.885 134.203L179.539 142.491Z" fill="#FEF5F5"/>
<path d="M130.39 101.562L133.686 63.4C137.862 59.8908 146.608 52.6092 148.19 51.5565C149.773 50.5037 168.628 53.3111 177.858 54.8463L207.526 68.6637L213.46 81.1652L214.779 96.2986L209.504 104.852H203.571L201.593 110.116L194.341 127.223L181.814 141.041L167.02 148.016L158.739 148.936L146.213 145.647L136.323 129.855L130.39 101.562Z" fill="#FFF1F1"/>
<path opacity="0.15" d="M202.937 90.9473C190.413 116.734 177.684 103.257 177.684 90.9473L194.659 60.5342C201.96 64.2061 213.399 84.6816 215.341 88.1816C215.721 88.7658 215.819 89.0411 215.564 88.584C215.516 88.4984 215.441 88.3628 215.341 88.1816C213.914 85.9901 208.52 79.4523 202.937 90.9473Z" fill="black"/>
<path d="M214.975 96.4216C228.893 79.1056 218.951 70.2035 209.214 54.0884C199.477 37.9734 191.131 4.82276 122.439 50.3685C118.293 52.5975 110.132 59.3397 108.318 68.3476C107.244 73.653 110.983 78.553 116.35 79.3267C127.695 80.9478 147.054 79.7504 163.155 61.4213C176.11 46.6843 170.558 89.0531 181.662 98.2637C188.338 103.801 193.74 96.1634 198.193 89.1904C202.48 82.4782 212.463 78.5257 214.305 86.2743C214.881 88.6988 215.169 91.9856 214.975 96.4216Z" fill="#151515"/>
<path d="M150.83 91.4898C152.104 91.4898 153.136 89.0073 153.136 85.945C153.136 82.8826 152.104 80.4001 150.83 80.4001C149.556 80.4001 148.524 82.8826 148.524 85.945C148.524 89.0073 149.556 91.4898 150.83 91.4898Z" fill="#151515"/>
<path d="M158.674 69.7428C158.674 69.7428 163.774 68.822 163.155 74.3173" stroke="black" stroke-width="2" stroke-miterlimit="10" stroke-linecap="round" stroke-linejoin="round"/>
<path d="M139.771 92.7642C139.771 92.7642 140.127 98.2893 136.069 103.817C136.069 103.817 133.635 106.117 146.154 113.944" stroke="black" stroke-width="2" stroke-miterlimit="10" stroke-linecap="round" stroke-linejoin="round"/>
<path d="M146.499 125.897C146.499 125.897 156.937 126.984 164.025 114.807C164.95 113.223 166.801 112.247 168.596 112.615C170.706 113.057 173.464 115.434 170.558 122.213C165.006 135.107 157.603 135.107 157.603 135.107" stroke="black" stroke-width="2" stroke-miterlimit="10" stroke-linecap="round"/>
<path d="M131.693 76.1592C131.693 76.1592 122.735 160.565 168.134 147.136C179.682 143.728 189.121 135.531 194.988 125.049C198.319 119.099 201.354 111.786 201.909 104.344" stroke="black" stroke-width="2" stroke-miterlimit="10" stroke-linecap="round"/>
<path d="M201.909 104.344C203.112 105.155 204.445 105.634 205.851 105.634C210.885 105.634 214.976 99.8677 214.976 92.7386C214.976 86.7702 212.107 81.7596 208.22 80.2859" stroke="black" stroke-width="3" stroke-miterlimit="10" stroke-linecap="round"/>
<path d="M134.686 91.4894C135.705 91.4894 136.531 89.4207 136.531 86.8687C136.531 84.3168 135.705 82.248 134.686 82.248C133.667 82.248 132.841 84.3168 132.841 86.8687C132.841 89.4207 133.667 91.4894 134.686 91.4894Z" fill="#151515"/>
<path d="M198.319 118.528C198.319 118.528 200.17 146.16 203.871 148.002" stroke="black" stroke-width="2" stroke-miterlimit="10" stroke-linecap="round"/>
<path d="M201.754 137.828C201.222 137.975 200.909 138.526 201.057 139.058C201.204 139.591 201.755 139.903 202.287 139.756L201.754 137.828ZM230.252 184.584C230.614 185.001 231.245 185.046 231.662 184.684C232.08 184.322 232.125 183.691 231.763 183.274L230.252 184.584ZM179.552 202.482L180.223 203.223L179.552 202.482ZM202.02 138.792C202.287 139.756 202.287 139.756 202.286 139.756C202.286 139.756 202.286 139.756 202.286 139.756C202.287 139.756 202.287 139.756 202.288 139.755C202.29 139.755 202.292 139.754 202.297 139.753C202.305 139.751 202.319 139.747 202.337 139.742C202.374 139.733 202.43 139.718 202.504 139.7C202.652 139.663 202.87 139.612 203.144 139.554C203.693 139.438 204.461 139.298 205.333 139.2C207.116 139.001 209.177 138.999 210.715 139.613C211.462 139.911 212.043 140.338 212.43 140.921C212.814 141.501 213.066 142.324 213.004 143.523C212.876 145.98 211.438 149.823 207.531 155.673L209.195 156.784C213.146 150.867 214.844 146.646 215.001 143.627C215.081 142.088 214.762 140.82 214.096 139.816C213.433 138.815 212.484 138.166 211.456 137.755C209.444 136.952 206.972 137.004 205.11 137.213C204.16 137.319 203.327 137.471 202.731 137.597C202.433 137.66 202.192 137.717 202.025 137.758C201.941 137.779 201.875 137.796 201.83 137.808C201.807 137.814 201.789 137.818 201.776 137.822C201.77 137.824 201.765 137.825 201.761 137.826C201.759 137.826 201.758 137.827 201.757 137.827C201.756 137.827 201.755 137.828 201.755 137.828C201.754 137.828 201.754 137.828 202.02 138.792ZM180.223 203.223C186.914 197.169 197.023 189.516 206.747 184.916C211.614 182.614 216.312 181.111 220.399 180.911C224.458 180.712 227.833 181.795 230.252 184.584L231.763 183.274C228.834 179.897 224.788 178.693 220.301 178.913C215.841 179.132 210.869 180.753 205.892 183.108C195.929 187.821 185.657 195.61 178.881 201.74L180.223 203.223ZM176.116 202.005C175.978 202.513 175.936 203.137 176.29 203.665C176.667 204.227 177.272 204.366 177.722 204.361C178.577 204.352 179.525 203.855 180.223 203.223L178.881 201.74C178.653 201.946 178.405 202.109 178.176 202.218C177.936 202.331 177.77 202.361 177.699 202.361C177.627 202.362 177.812 202.343 177.951 202.551C178.068 202.726 177.972 202.801 178.046 202.533L176.116 202.005ZM207.531 155.673C202.475 163.245 195.95 170.229 189.939 177.709C183.974 185.13 178.587 192.964 176.116 202.005L178.046 202.533C180.404 193.904 185.572 186.334 191.498 178.962C197.376 171.647 204.078 164.447 209.195 156.784L207.531 155.673Z" fill="black"/>
<path d="M207.566 87.8879C208.863 90.6227 210.011 96.6391 204.233 98.8269" stroke="black" stroke-width="3" stroke-linecap="round"/>
<path d="M166.093 148.476C169.338 155.842 177.684 189.454 171.193 203.266" stroke="black" stroke-width="2" stroke-linecap="round"/>
<path d="M167.924 154.899C168.42 154.656 168.625 154.056 168.381 153.561C168.138 153.065 167.539 152.86 167.043 153.103L167.924 154.899ZM170.252 203.605C170.439 204.125 171.012 204.395 171.532 204.208C172.051 204.021 172.321 203.448 172.134 202.928L170.252 203.605ZM167.043 153.103C160.579 156.274 154.507 160.165 151.057 164.524L152.625 165.765C155.787 161.77 161.523 158.039 167.924 154.899L167.043 153.103ZM161.152 189.398C165.334 194.619 169.068 200.313 170.252 203.605L172.134 202.928C170.829 199.299 166.907 193.384 162.713 188.148L161.152 189.398ZM151.057 164.524C149.395 166.623 148.819 168.833 149.036 171.073C149.248 173.273 150.218 175.434 151.516 177.503C152.817 179.577 154.494 181.63 156.199 183.612C157.922 185.617 159.653 187.526 161.152 189.398L162.713 188.148C161.186 186.241 159.39 184.256 157.715 182.308C156.021 180.338 154.427 178.38 153.21 176.441C151.991 174.496 151.197 172.642 151.026 170.881C150.86 169.16 151.281 167.463 152.625 165.765L151.057 164.524Z" fill="black"/>
<path d="M177.221 203.267C170.055 230.878 175.601 258.976 174.439 264.964" stroke="black" stroke-width="2" stroke-linecap="round"/>
<path d="M149.93 166.891C138.249 169.154 118.762 182.973 105.823 251.145" stroke="black" stroke-width="2" stroke-linecap="round"/>
<path opacity="0.15" d="M198.244 119.048C195.471 145.662 172.828 160.402 170.055 159.02L166.358 148.068L183.456 138.855L194.085 127.8C195.009 124.422 198.244 118.127 198.244 119.048Z" fill="black"/>
<path d="M87.698 233.181C90.9328 236.405 105.258 247 110.803 260.818" stroke="black" stroke-width="2" stroke-linecap="round"/>
<path d="M21.1547 171.457L38.2527 188.039L40.5633 188.5L41.0254 183.894L41.9496 176.063L45.1843 175.142L47.957 179.748C48.7271 181.13 50.3599 185.736 50.7296 193.106C51.0993 200.476 55.5047 206.925 57.6612 209.228L63.2065 214.295L56.737 221.665L47.957 233.641L45.1843 231.338L34.0938 222.586L14.6852 203.701L11.9126 195.87V183.894V179.748L13.761 172.839L14.6852 169.154L21.1547 171.457Z" fill="#FEF5F5"/>
<path d="M38.7147 251.146C47.4947 230.878 69.9365 200.339 76.2389 210.655C79.535 216.981 72.4485 218.441 84.3578 223.157C92.7156 228.247 88.192 233.437 80.3044 243.315L75.2212 249.303" stroke="black" stroke-width="2" stroke-linecap="round"/>
<path d="M62.0313 213.463L56.7371 207.846" stroke="black" stroke-width="3" stroke-linecap="round"/>
<path d="M51.9462 201.053C51.0741 191.298 48.8771 174.573 43.8629 175.448C39.5865 176.194 42.5131 187.258 40.2498 188.541C37.9865 189.824 18.9858 165.962 14.4236 170.04C13.52 170.848 13.9492 173.567 13.4127 175.39C12.8742 177.219 11.3609 181.067 12.3746 183.433C11.457 190.364 11.4884 196.754 13.5163 201.005C18.1131 210.639 38.7147 221.665 47.4948 234.563" stroke="black" stroke-width="2" stroke-linecap="round"/>
<path d="M39.6389 196.791C39.6389 199.094 41.0252 203.885 46.5705 204.622" stroke="black" stroke-width="2" stroke-linecap="round"/>
<path d="M171.58 202.319C170.194 205.39 166.359 213.374 167.283 227.193" stroke="black" stroke-width="2" stroke-linecap="round"/>
<path d="M218.115 74.7256L218.577 68.2769C219.655 68.4304 221.904 68.8296 222.274 69.1981C222.643 69.5666 235.213 79.7925 240.758 85.7806C244.455 89.005 243.052 99.9734 241.682 98.2175C231.978 85.7806 222.428 77.3358 218.115 74.7256Z" fill="#F9EA66"/>
<path d="M207.024 59.5249C215.65 64.1312 225.971 71.0405 231.516 77.0287" stroke="black" stroke-width="2" stroke-linecap="round"/>
<path d="M138.238 30.9832L121.534 51.2337C121.534 51.2337 159.889 48.8086 178.815 52.6756C197.741 56.5425 220.887 76.5682 220.887 76.5682C225.446 48.7698 209.578 21.6693 183.118 12.0136C165.961 10.6128 149.196 17.6992 138.238 30.9832Z" fill="#F9EA66"/>
<g style="mix-blend-mode:multiply">
<path d="M132.938 36.2734L121.5 51.9999C121.5 51.9999 141.02 53.6125 149.946 55.3172C158.872 57.0219 177.261 59.9999 177.261 59.9999L179.66 48.8963C182.604 35.2759 177.251 21.21 166 13C152.71 16.8897 141.082 25.0752 132.938 36.2734Z" fill="#F9EA66"/>
</g>
<path d="M131.391 41.4478L131.398 41.9347C138.799 40.5148 146.389 40.3776 153.838 41.529L154.499 41.6312L154.492 41.1443C154.408 34.7651 149.168 29.6617 142.789 29.7455C136.41 29.8293 131.307 35.0686 131.391 41.4478Z" fill="black" stroke="black" stroke-width="3" stroke-miterlimit="10" stroke-linecap="round"/>
<path d="M150.968 25.4966C153.898 26.0941 161.578 30.6983 161.275 42.4923" stroke="black" stroke-width="2" stroke-miterlimit="10" stroke-linecap="round"/>
<path d="M210 104.559C212.988 104.822 215.749 105.157 218.275 105.526C230.614 107.328 245.668 104.156 237.901 94.4036C233.146 88.4317 225.496 82.06 219.996 77.7856L216.774 84.3215L213.791 101.848L210 104.559Z" fill="#151515"/>
<path d="M219.863 77.6819C219.907 77.7164 219.952 77.7509 219.996 77.7856M219.996 77.7856C225.496 82.06 233.146 88.4317 237.901 94.4036C245.668 104.156 230.614 107.328 218.275 105.526C215.749 105.157 212.988 104.822 210 104.559L213.791 101.848L216.774 84.3215L219.996 77.7856Z" stroke="black" stroke-width="3" stroke-linecap="round"/>
<path d="M238.909 84.3989C244.917 92.2296 243.068 99.1389 239.372 102.824" stroke="black" stroke-width="2" stroke-linecap="round"/>
<path d="M120.188 53.6269L119.21 53.4225L118.916 54.8314L120.339 54.6157L120.188 53.6269ZM220.454 76.6642L219.899 77.4963L221.144 78.3259L221.434 76.8589L220.454 76.6642ZM170.703 52.9015L170.5 53.8808L170.703 52.9015ZM121.167 53.8314L121.773 50.9254L119.815 50.5166L119.21 53.4225L121.167 53.8314ZM220.548 71.0428L219.473 76.4694L221.434 76.8589L222.51 71.4322L220.548 71.0428ZM220.454 76.6642C221.008 75.832 221.008 75.8319 221.007 75.8317C221.007 75.8315 221.007 75.8312 221.006 75.8309C221.005 75.8302 221.004 75.8293 221.002 75.828C220.998 75.8255 220.992 75.8218 220.985 75.8169C220.97 75.8072 220.949 75.7928 220.92 75.7739C220.863 75.7362 220.779 75.6804 220.668 75.6077C220.446 75.4623 220.119 75.249 219.696 74.9764C218.851 74.4312 217.622 73.6485 216.083 72.6966C213.006 70.7929 208.689 68.2104 203.73 65.4945C193.839 60.0777 181.291 54.0729 170.905 51.9222L170.5 53.8808C180.574 55.9669 192.9 61.8434 202.77 67.2487C207.691 69.9438 211.976 72.5076 215.031 74.3975C216.558 75.3423 217.777 76.1182 218.613 76.6574C219.031 76.9269 219.354 77.1373 219.571 77.28C219.68 77.3513 219.762 77.4057 219.817 77.4421C219.845 77.4603 219.866 77.474 219.879 77.4831C219.886 77.4876 219.891 77.491 219.895 77.4932C219.896 77.4943 219.897 77.4951 219.898 77.4956C219.899 77.4959 219.899 77.496 219.899 77.4962C219.899 77.4963 219.899 77.4963 220.454 76.6642ZM170.905 51.9222C161.101 49.8919 148.359 50.0827 138.131 50.7654C133.004 51.1076 128.484 51.5753 125.246 51.9575C123.626 52.1487 122.327 52.3185 121.431 52.4407C120.983 52.5018 120.636 52.551 120.4 52.585C120.282 52.602 120.192 52.6152 120.132 52.6242C120.101 52.6287 120.078 52.6321 120.063 52.6345C120.055 52.6357 120.049 52.6365 120.045 52.6372C120.043 52.6375 120.041 52.6377 120.04 52.6379C120.04 52.6379 120.039 52.638 120.039 52.6381C120.038 52.6381 120.038 52.6381 120.188 53.6269C120.339 54.6157 120.339 54.6157 120.339 54.6157C120.339 54.6157 120.339 54.6156 120.34 54.6156C120.34 54.6154 120.342 54.6152 120.343 54.615C120.347 54.6145 120.352 54.6136 120.36 54.6126C120.374 54.6104 120.396 54.6071 120.425 54.6028C120.484 54.5941 120.571 54.5813 120.687 54.5646C120.917 54.5313 121.259 54.4829 121.702 54.4225C122.587 54.3018 123.875 54.1335 125.481 53.9439C128.694 53.5647 133.179 53.1006 138.265 52.7611C148.462 52.0805 160.977 51.9086 170.5 53.8808L170.905 51.9222ZM181.786 11.9702C208.647 17.802 225.89 44.0807 220.548 71.0428L222.51 71.4322C228.063 43.4003 210.136 16.0788 182.21 10.0156L181.786 11.9702ZM121.773 50.9254C127.485 23.5219 154.431 6.03099 181.786 11.9702L182.21 10.0156C153.769 3.84069 125.754 22.0257 119.815 50.5166L121.773 50.9254Z" fill="black"/>
<path d="M182.994 11.1592C193.623 15.3048 209.797 39.2573 199.168 67.8161" stroke="black" stroke-width="2" stroke-linecap="round"/>
<path d="M215.867 102.117C215.867 107.2 200.646 118.752 197.417 121.524L202.03 105.814H204.797L210.793 104.427L212.638 100.269C213.715 99.1906 215.867 98.0508 215.867 102.117Z" fill="#151515"/>
<path d="M218.488 142.03C221.27 155.383 237.985 165.008 250 167.772" stroke="black" stroke-width="2" stroke-linecap="round"/>
</svg>
