<svg width="42" height="42" viewBox="0 0 42 42" fill="none" xmlns="http://www.w3.org/2000/svg">
<circle cx="21" cy="21" r="20.5" stroke="#D6D6D6"/>
<path fill-rule="evenodd" clip-rule="evenodd" d="M16.5 13.82C16.5 13.6442 16.6442 13.5 16.82 13.5H25.18C25.3558 13.5 25.5 13.6442 25.5 13.82V28.172C25.4944 28.3623 25.3475 28.5 25.17 28.5H16.82C16.6442 28.5 16.5 28.3558 16.5 28.18V13.82ZM16.82 12C15.8158 12 15 12.8158 15 13.82V28.18C15 29.1842 15.8158 30 16.82 30H25.17C26.1911 30 26.9833 29.18 27 28.1927V13.82C27 12.8158 26.1842 12 25.18 12H16.82ZM19.74 24.25C19.3258 24.25 18.99 24.5858 18.99 25C18.99 25.4142 19.3258 25.75 19.74 25.75H22.24C22.6542 25.75 22.99 25.4142 22.99 25C22.99 24.5858 22.6542 24.25 22.24 24.25H19.74ZM12.75 22C13.1642 22 13.5 22.3358 13.5 22.75V29.25C13.5 29.6642 13.1642 30 12.75 30C12.3358 30 12 29.6642 12 29.25V22.75C12 22.3358 12.3358 22 12.75 22ZM30 12.75C30 12.3358 29.6642 12 29.25 12C28.8358 12 28.5 12.3358 28.5 12.75V19.25C28.5 19.6642 28.8358 20 29.25 20C29.6642 20 30 19.6642 30 19.25V12.75Z" fill="#767676"/>
</svg>
