<svg width="30" height="30" viewBox="0 0 30 30" fill="none" xmlns="http://www.w3.org/2000/svg">
<path fill-rule="evenodd" clip-rule="evenodd" d="M28.25 0C29.21 0 30 0.79 30 1.75V10.5C30 11.67 29.63 12.76 29 13.65V28.25C29 29.21 28.21 30 27.25 30H2.75C1.79 30 1 29.21 1 28.25V13.65C0.37 12.76 0 11.67 0 10.5V1.75C0 0.79 0.79 0 1.75 0H9.5H11H19H20.5H28.25ZM28.25 1.5H20.5V10.5C20.5 12.71 22.29 14.5 24.5 14.5C26.71 14.5 28.5 12.71 28.5 10.5V1.75C28.5 1.61 28.39 1.5 28.25 1.5ZM19 1.5H11V10.5C11 12.71 12.79 14.5 15 14.5C17.21 14.5 19 12.71 19 10.5V1.5ZM1.75 1.5C1.61 1.5 1.5 1.61 1.5 1.75V10.5C1.5 12.71 3.29 14.5 5.5 14.5C7.71 14.5 9.5 12.71 9.5 10.5V1.5H1.75ZM2.5 28.25C2.5 28.39 2.61 28.5 2.75 28.5H27.25C27.39 28.5 27.5 28.39 27.5 28.25V15.1C26.64 15.67 25.61 16 24.5 16C22.47 16 20.7 14.9 19.75 13.26C18.8 14.9 17.03 16 15 16C12.97 16 11.2 14.9 10.25 13.26C9.3 14.9 7.53 16 5.5 16C4.39 16 3.36 15.66 2.5 15.1V28.25ZM11 25.25C11 24.84 11.34 24.5 11.75 24.5H18.25C18.66 24.5 19 24.84 19 25.25C19 25.66 18.66 26 18.25 26H11.75C11.34 26 11 25.66 11 25.25Z" fill="#333333"/>
</svg>
