<svg width="114" height="110" viewBox="0 0 114 110" fill="none" xmlns="http://www.w3.org/2000/svg">
<path d="M66.2778 42.7222L71 38V48H61L66.2778 42.7222Z" fill="#2CB3FF"/>
<path d="M42.6584 82.948H37.3154V81.44H42.6584V82.948ZM42.6584 80.608H37.3154V79.139H36.2624V83.806H43.7244V79.139H42.6584V80.608ZM37.3024 77.358C36.1454 77.358 35.3134 76.604 35.3134 75.538C35.3134 74.472 36.1454 73.731 37.3024 73.731C38.4594 73.731 39.2914 74.472 39.2914 75.538C39.2914 76.604 38.4594 77.358 37.3024 77.358ZM42.6454 72.314V75.083H40.2664C40.0454 73.731 38.8754 72.847 37.3024 72.847C35.5604 72.847 34.2994 73.939 34.2994 75.538C34.2994 77.15 35.5604 78.242 37.3024 78.242C38.9014 78.242 40.0714 77.332 40.2794 75.954H42.6454V78.567H43.7244V72.314H42.6454ZM48.8194 75.33H50.9774V74.446H48.8324V72.717H47.8054V74.446H45.6474V75.33H47.8054V75.889C47.8054 77.8 46.9084 79.841 45.3354 80.777L45.9594 81.57C47.1034 80.881 47.9224 79.581 48.3254 78.099C48.7544 79.503 49.5864 80.686 50.7174 81.323L51.3284 80.517C49.7554 79.672 48.8194 77.748 48.8194 75.889V75.33ZM51.9654 76.903H50.1844V77.787H51.9654V83.351H52.9794V72.574H51.9654V76.903ZM54.3054 72.301V83.949H55.3324V72.301H54.3054ZM67.1306 76.084H61.3846V73.705H67.1306V76.084ZM68.1836 72.847H60.3446V76.942H68.1836V72.847ZM61.3846 80.374H60.3186V83.702H68.3786V82.831H61.3846V80.374ZM58.9666 78.268V79.126H63.8156V81.479H64.8816V79.126H69.5616V78.268H58.9666ZM74.0846 73.159C72.2776 73.159 70.9646 74.264 70.9646 75.902C70.9646 77.527 72.2776 78.645 74.0846 78.645C75.9046 78.645 77.2046 77.527 77.2046 75.902C77.2046 74.264 75.9046 73.159 74.0846 73.159ZM74.0846 74.069C75.2936 74.069 76.1646 74.81 76.1646 75.902C76.1646 76.981 75.2936 77.735 74.0846 77.735C72.8756 77.735 72.0046 76.981 72.0046 75.902C72.0046 74.81 72.8756 74.069 74.0846 74.069ZM78.7386 72.301V83.988H79.8046V72.301H78.7386ZM70.5096 81.427C72.6156 81.427 75.4366 81.414 78.0626 80.92L77.9716 80.127C75.4236 80.517 72.4986 80.53 70.3796 80.53L70.5096 81.427Z" fill="#151515"/>
<path fill-rule="evenodd" clip-rule="evenodd" d="M43.75 25H70.25C71.21 25 72 25.79 72 26.75V47.36C72 48.32 71.21 49.11 70.25 49.11H62.22C62.15 49.11 62.08 49.14 62.03 49.2L58.38 54.32C58.02 54.77 57.53 55 57 55C56.47 55 55.98 54.77 55.65 54.35L51.94 49.15C51.92 49.13 51.85 49.1 51.78 49.1H43.75C42.79 49.1 42 48.32 42 47.35V26.75C42 25.79 42.79 25 43.75 25ZM70.25 47.6C70.39 47.6 70.5 47.49 70.5 47.35V26.75C70.5 26.61 70.39 26.5 70.25 26.5H43.75C43.61 26.5 43.5 26.61 43.5 26.75V47.35C43.5 47.49 43.61 47.6 43.75 47.6H51.78C52.3 47.6 52.8 47.83 53.13 48.24L56.84 53.44C56.91 53.52 57.06 53.56 57.19 53.4L60.84 48.28C61.2 47.83 61.69 47.6 62.22 47.6H70.25ZM62.21 37.76C62.34 37.37 62.76 37.16 63.16 37.29C63.56 37.42 63.77 37.85 63.63 38.24C62.67 41.09 60.01 43 57 43C53.99 43 51.33 41.09 50.37 38.24C50.24 37.85 50.45 37.42 50.84 37.29C51.24 37.16 51.66 37.37 51.79 37.76C52.54 40 54.64 41.5 57 41.5C59.36 41.5 61.46 40 62.21 37.76ZM54 36C54.41 36 54.75 35.66 54.75 35.25V32.75C54.75 32.34 54.41 32 54 32C53.59 32 53.25 32.34 53.25 32.75V35.25C53.25 35.66 53.59 36 54 36ZM60.75 35.25C60.75 35.66 60.41 36 60 36C59.59 36 59.25 35.66 59.25 35.25V32.75C59.25 32.34 59.59 32 60 32C60.41 32 60.75 32.34 60.75 32.75V35.25Z" fill="#151515"/>
</svg>
