<svg width="30" height="30" viewBox="0 0 30 30" fill="none" xmlns="http://www.w3.org/2000/svg">
<path d="M29.7398 12.1175L16.1398 0.4275C15.4798 -0.1425 14.5198 -0.1425 13.8598 0.4275L0.259822 12.1175C-0.0501779 12.3875 -0.0901779 12.8575 0.179822 13.1775C0.449822 13.4875 0.919822 13.5275 1.23982 13.2575L1.99982 12.5975V27.9375C1.99982 28.8975 2.78982 29.6875 3.74982 29.6875H10.8198H19.1798H26.2498C27.2098 29.6875 27.9998 28.8975 27.9998 27.9375V12.5975L28.7598 13.2475C28.8998 13.3675 29.0798 13.4275 29.2498 13.4275C29.4598 13.4275 29.6698 13.3375 29.8198 13.1675C30.0898 12.8575 30.0498 12.3875 29.7398 12.1175ZM11.4998 28.1775V20.6775C11.4998 18.7475 13.0698 17.1775 14.9998 17.1775C16.9298 17.1775 18.4998 18.7475 18.4998 20.6775V28.1775H11.4998ZM26.4998 27.9275C26.4998 28.0675 26.3898 28.1775 26.2498 28.1775H19.9998V20.6775C19.9998 17.9175 17.7598 15.6775 14.9998 15.6775C12.2398 15.6775 9.99982 17.9175 9.99982 20.6775V28.1775H3.74982C3.60982 28.1775 3.49982 28.0675 3.49982 27.9275V11.3075L14.8398 1.5575C14.9298 1.4775 15.0698 1.4775 15.1698 1.5575L26.5098 11.3075V27.9275H26.4998Z" fill="#333333"/>
</svg>
