<svg width="110" height="110" viewBox="0 0 110 110" fill="none" xmlns="http://www.w3.org/2000/svg">
<circle cx="55" cy="55" r="55" fill="#F3F3F3"/>
<g style="mix-blend-mode:multiply">
<path d="M50.5 27.5L51 42.5L55.5 41.5L59 43V34V26.5L57.5 24.5L55 23.5L52 24.5L50.5 27.5Z" fill="#C7C9BD"/>
</g>
<g style="mix-blend-mode:multiply">
<path d="M23.5 70L24.5 61.5L44 49L48 46.5V51L50 55L49 56C45 58.5 36.9 63.5 36.5 63.5C36.1 63.5 33.6667 65.8333 32.5 67L32 79L31.5 84L29.5 86H26L24 83.5L23.5 78.5V70Z" fill="#C7C9BD"/>
</g>
<g style="mix-blend-mode:multiply">
<path d="M86.5 69.5L85.5 61L66 48.5L62 46V50.5L60 54.5L61 55.5C65 58 73.1 63 73.5 63C73.9 63 76.3333 65.3333 77.5 66.5L78 78.5L78.5 83.5L80.5 85.5H84L86 83L86.5 78V69.5Z" fill="#C7C9BD"/>
</g>
<g style="mix-blend-mode:multiply" opacity="0.4">
<circle cx="55" cy="49" r="7" fill="#46B3FC"/>
</g>
<g style="mix-blend-mode:multiply" opacity="0.4">
<circle cx="55" cy="49" r="3" fill="#46B3FC"/>
</g>
<rect x="32" y="70" width="46" height="12" fill="#F9EA66"/>
<g style="mix-blend-mode:multiply">
<rect x="32" y="77" width="46" height="5" fill="#F9EA66"/>
</g>
<path fill-rule="evenodd" clip-rule="evenodd" d="M50.9856 49C50.9856 51.21 52.7753 53 54.985 53C57.1846 53 58.9844 51.21 58.9844 49C58.9844 46.79 57.1946 45 54.985 45C52.7753 45 50.9856 46.79 50.9856 49ZM52.4854 49C52.4854 47.62 53.6052 46.5 54.985 46.5C56.3648 46.5 57.4846 47.62 57.4846 49C57.4846 50.38 56.3648 51.5 54.985 51.5C53.6052 51.5 52.4854 50.38 52.4854 49Z" fill="#040100"/>
<path fill-rule="evenodd" clip-rule="evenodd" d="M49.9858 28V42.76C48.9887 43.5607 48.1868 44.595 47.6638 45.7789L31.6586 56.0499L25.3196 59.8299C23.8899 60.6799 23 62.2599 23 63.9599V81.9699C23 84.7499 25.1897 86.9999 27.8892 86.9999C30.2459 86.9999 32.2216 85.2851 32.6855 83H77.3141C77.776 85.2851 79.7441 86.9999 82.1008 86.9999C84.8003 86.9999 86.99 84.7499 87 81.9699V63.9599C87 62.2599 86.1101 60.6799 84.6804 59.8299L78.3614 56.0699L62.3004 45.7659C61.7773 44.5875 60.9776 43.5578 59.9842 42.76V28C59.9842 25.24 57.7445 23 54.985 23C52.2254 23 49.9858 25.24 49.9858 28ZM58.4844 28V41.8074C57.4267 41.2904 56.239 41 54.985 41C53.7309 41 52.5432 41.2904 51.4855 41.8074V28C51.4855 26.07 53.0553 24.5 54.985 24.5C56.9147 24.5 58.4844 26.07 58.4844 28ZM35.4292 81.5H32.7885V70.5H45.5107L35.438 81.4901L35.4292 81.5ZM37.4645 81.5H49.417L49.4258 81.4901L59.4985 70.5H47.5462L37.4645 81.5ZM62.415 81.5H51.4522L61.5339 70.5001L72.4965 70.5L62.4238 81.4901C62.4208 81.4934 62.4179 81.4967 62.415 81.5ZM64.4502 81.5H77.2115V70.5H74.532C74.532 70.5 74.5319 70.5 74.532 70.5L64.4502 81.5ZM77.2115 69V68.8999C77.2115 67.7299 76.6016 66.6399 75.6318 66.0599L59.3465 55.7027C58.0911 56.5228 56.5925 57 54.985 57C53.3818 57 51.887 56.5254 50.6337 55.7094L34.3882 66.0499C33.3884 66.6399 32.7885 67.7299 32.7885 68.8999V69H77.2115ZM32.4385 57.3299L47.055 47.9495C47.0096 48.2933 46.9862 48.644 46.9862 49C46.9862 51.2375 47.9102 53.2639 49.3965 54.7174L33.5983 64.7699C32.1686 65.6199 31.2787 67.1999 31.2787 68.8999V81.9699C31.2787 83.9199 29.7589 85.4999 27.8892 85.4999C26.0195 85.4999 24.4998 83.9199 24.4998 81.9699V63.9599C24.4998 62.7899 25.1097 61.6999 26.0795 61.1199L32.4385 57.3299ZM62.9136 47.9386C62.9598 48.286 62.9837 48.6403 62.9837 49C62.9837 51.2335 62.063 53.2566 60.5815 54.7096L76.4117 64.7799C77.8214 65.6199 78.7113 67.1999 78.7113 68.8999V81.9699C78.7113 83.9199 80.2311 85.4999 82.1008 85.4999C83.9705 85.4999 85.4902 83.9199 85.4902 81.9699V63.9599C85.4902 62.7899 84.8803 61.6999 83.9105 61.1199L77.5715 57.3399L62.9136 47.9386ZM48.486 49C48.486 45.42 51.4055 42.5 54.985 42.5C58.5644 42.5 61.484 45.42 61.484 49C61.484 52.58 58.5744 55.5 54.985 55.5C51.3955 55.5 48.486 52.58 48.486 49Z" fill="#040100"/>
</svg>
