<svg width="110" height="110" viewBox="0 0 110 110" fill="none" xmlns="http://www.w3.org/2000/svg">
<circle cx="55" cy="55" r="55" fill="#F3F3F3"/>
<g style="mix-blend-mode:multiply">
<rect x="61" y="57" width="25" height="21" fill="#C7C9BD"/>
</g>
<g style="mix-blend-mode:multiply">
<rect x="61" y="34" width="5" height="44" fill="#C7C9BD"/>
</g>
<g style="mix-blend-mode:multiply">
<rect x="23" y="23" width="38" height="56" rx="3" fill="#FAD6CD"/>
</g>
<circle cx="42" cy="79" r="7" fill="#474747"/>
<circle cx="73" cy="79" r="7" fill="#474747"/>
<circle cx="42" cy="79" r="3" fill="white"/>
<circle cx="73" cy="79" r="3" fill="white"/>
<circle cx="42" cy="51" r="10" fill="#F9EA66"/>
<path fill-rule="evenodd" clip-rule="evenodd" d="M86.99 55.5C86.98 55.01 86.95 54.52 86.91 54.04C86.905 53.995 86.9025 53.9525 86.9 53.91C86.8975 53.8675 86.895 53.825 86.89 53.78C86.83 53.2 86.75 52.63 86.65 52.06C86.6243 51.8887 86.5913 51.7248 86.5572 51.5556L86.54 51.47C86.45 51.01 86.34 50.57 86.22 50.12C84.27 42.73 78.79 36.81 71.55 34.31L71.3909 34.2546L71.3908 34.2546C71.1868 34.1834 70.9866 34.1136 70.78 34.05L70.7798 34.05C70.5099 33.97 70.2399 33.89 69.97 33.82C69.47 33.68 68.97 33.56 68.45 33.46C68.375 33.445 68.3025 33.4325 68.2301 33.42L68.23 33.42L68.2299 33.42C68.1575 33.4075 68.085 33.395 68.01 33.38C67.4 33.27 66.78 33.18 66.15 33.12C66.135 33.12 66.1225 33.1175 66.11 33.115C66.0975 33.1125 66.085 33.11 66.07 33.11H66.04C65.34 33.05 64.63 33.01 63.92 33.01H61V25.75C61 24.23 59.77 23 58.25 23H25.75C24.23 23 23 24.23 23 25.75V76.25C23 77.77 24.23 79 25.75 79H34C34 83.41 37.59 87 42 87C46.41 87 50 83.41 50 79H59.5H61H65C65 83.41 68.59 87 73 87C77.41 87 81 83.41 81 79H84.25C85.77 79 87 77.77 87 76.25V57V56.25V56.08V55.5H86.99ZM66.75 34.71C67.07 34.75 67.39 34.8 67.71 34.85C67.82 34.87 67.9275 34.8875 68.035 34.905C68.1425 34.9225 68.25 34.94 68.36 34.96C76.55 36.68 83.05 43.05 84.94 51.17C84.945 51.19 84.95 51.2075 84.955 51.225C84.96 51.2425 84.965 51.26 84.97 51.28C85.11 51.88 85.21 52.5 85.3 53.11C85.305 53.155 85.3125 53.2 85.32 53.245C85.3275 53.29 85.335 53.335 85.34 53.38C85.43 54.07 85.48 54.78 85.5 55.49H66.75V34.71ZM63.92 34.5C64.2813 34.5 64.6361 34.5258 64.9897 34.5515C65.0765 34.5578 65.1633 34.5641 65.25 34.57V55.5H61V34.5H63.92ZM42 85.5C38.42 85.5 35.5 82.58 35.5 79C35.5 75.42 38.42 72.5 42 72.5C45.58 72.5 48.5 75.42 48.5 79C48.5 82.58 45.58 85.5 42 85.5ZM59.5 77.5H49.85C49.15 73.8 45.9 71 42 71C38.1 71 34.85 73.8 34.15 77.5H25.75C25.06 77.5 24.5 76.94 24.5 76.25V25.75C24.5 25.06 25.06 24.5 25.75 24.5H58.25C58.94 24.5 59.5 25.06 59.5 25.75V33V55.5V57V77.5ZM73 85.5C69.42 85.5 66.5 82.58 66.5 79C66.5 75.42 69.42 72.5 73 72.5C76.58 72.5 79.5 75.42 79.5 79C79.5 82.58 76.58 85.5 73 85.5ZM85.5 76.25C85.5 76.94 84.94 77.5 84.25 77.5H80.85C80.15 73.8 76.9 71 73 71C69.1 71 65.85 73.8 65.15 77.5H61V57H65.99H66H66.06H85.5V76.25ZM42 40C35.93 40 31 44.93 31 51C31 57.07 35.93 62 42 62C48.07 62 53 57.07 53 51C53 44.93 48.07 40 42 40ZM42 60.5C36.76 60.5 32.5 56.24 32.5 51C32.5 45.76 36.76 41.5 42 41.5C47.24 41.5 51.5 45.76 51.5 51C51.5 56.24 47.24 60.5 42 60.5ZM80.25 60.75H75.75C75.34 60.75 75 60.41 75 60C75 59.59 75.34 59.25 75.75 59.25H80.25C80.66 59.25 81 59.59 81 60C81 60.41 80.66 60.75 80.25 60.75Z" fill="#151515"/>
<path d="M42.197 53.4439C42.7166 53.4439 43.1478 53.3021 43.4904 53.0187C43.833 52.7353 44.0157 52.385 44.0385 51.9679H46C45.9772 52.508 45.7973 53.0134 45.4604 53.484C45.1235 53.9492 44.6667 54.3182 44.0899 54.5909C43.5132 54.8636 42.8908 55 42.2227 55C40.9265 55 39.8986 54.607 39.1392 53.8209C38.3797 53.0348 38 51.9492 38 50.5642V50.3636C38 49.0428 38.3769 47.9866 39.1306 47.1952C39.8844 46.3984 40.9122 46 42.2141 46C43.3162 46 44.2127 46.3021 44.9036 46.9064C45.6003 47.5053 45.9657 48.2941 46 49.2727H44.0385C44.0157 48.7754 43.833 48.3663 43.4904 48.0455C43.1535 47.7246 42.7223 47.5642 42.197 47.5642C41.5232 47.5642 41.0036 47.7941 40.6381 48.254C40.2727 48.7086 40.0871 49.4011 40.0814 50.3316V50.6444C40.0814 51.5856 40.2612 52.2888 40.621 52.754C40.9864 53.2139 41.5118 53.4439 42.197 53.4439Z" fill="#151515"/>
</svg>
