<svg width="18" height="18" viewBox="0 0 18 18" fill="none" xmlns="http://www.w3.org/2000/svg">
<path fill-rule="evenodd" clip-rule="evenodd" d="M1.75 0H16.25C17.21 0 18 0.79 18 1.75V16.25C18 17.21 17.21 18 16.25 18H1.75C0.79 18 0 17.21 0 16.25V1.75C0 0.79 0.79 0 1.75 0ZM1.5 1.75V16.25C1.5 16.39 1.61 16.5 1.75 16.5H5.54C5.94 10.63 10.63 5.94 16.5 5.54V1.75C16.5 1.61 16.39 1.5 16.25 1.5H1.75C1.61 1.5 1.5 1.61 1.5 1.75ZM7.04 16.5H16.25C16.39 16.5 16.5 16.39 16.5 16.25V7.04C11.46 7.43 7.43 11.46 7.04 16.5ZM8 6C8 7.1 7.1 8 6 8C4.9 8 4 7.1 4 6C4 4.9 4.9 4 6 4C7.1 4 8 4.9 8 6ZM6.5 6C6.5 5.72 6.28 5.5 6 5.5C5.72 5.5 5.5 5.72 5.5 6C5.5 6.28 5.72 6.5 6 6.5C6.28 6.5 6.5 6.28 6.5 6Z" fill="#C0C0C0"/>
</svg>
