<svg width="114" height="110" viewBox="0 0 114 110" fill="none" xmlns="http://www.w3.org/2000/svg">
<path d="M62.4444 45.5556L70 38V54H54L62.4444 45.5556Z" fill="#2CB3FF"/>
<path d="M40.2404 77.28C40.5394 75.746 40.5394 74.589 40.5394 73.822V73.211H34.7414V74.082H39.4994C39.4994 74.823 39.4604 75.824 39.1874 77.163L40.2404 77.28ZM41.3454 77.982C40.1624 78.151 38.8364 78.242 37.5624 78.294V75.811H36.5094V78.333C35.6254 78.346 34.7804 78.359 34.0394 78.359L34.1434 79.23C36.2104 79.23 39.0054 79.165 41.4234 78.762L41.3454 77.982ZM36.8864 80.283H35.8204V83.702H43.5684V82.831H36.8864V80.283ZM43.1914 76.097V72.301H42.1254V81.089H43.1914V76.981H44.8684V76.097H43.1914ZM52.4854 77.579C50.7564 77.007 49.5344 75.551 49.5344 73.9V72.769H48.4684V73.9C48.4684 75.616 47.2724 77.176 45.5044 77.813L46.0504 78.645C47.4284 78.138 48.5074 77.059 49.0144 75.707C49.5474 76.968 50.6134 77.956 51.9524 78.424L52.4854 77.579ZM48.4944 80.452H53.9544V82.948H48.4944V80.452ZM47.4544 83.806H54.9944V79.607H47.4544V83.806ZM53.9284 72.314V78.944H54.9944V72.314H53.9284ZM67.5336 82.948H62.1906V81.44H67.5336V82.948ZM67.5336 80.608H62.1906V79.139H61.1376V83.806H68.5996V79.139H67.5336V80.608ZM62.1776 77.358C61.0206 77.358 60.1886 76.604 60.1886 75.538C60.1886 74.472 61.0206 73.731 62.1776 73.731C63.3346 73.731 64.1666 74.472 64.1666 75.538C64.1666 76.604 63.3346 77.358 62.1776 77.358ZM67.5206 72.314V75.083H65.1416C64.9206 73.731 63.7506 72.847 62.1776 72.847C60.4356 72.847 59.1746 73.939 59.1746 75.538C59.1746 77.15 60.4356 78.242 62.1776 78.242C63.7766 78.242 64.9466 77.332 65.1546 75.954H67.5206V78.567H68.5996V72.314H67.5206ZM73.6946 75.33H75.8526V74.446H73.7076V72.717H72.6806V74.446H70.5226V75.33H72.6806V75.889C72.6806 77.8 71.7836 79.841 70.2106 80.777L70.8346 81.57C71.9786 80.881 72.7976 79.581 73.2006 78.099C73.6296 79.503 74.4616 80.686 75.5926 81.323L76.2036 80.517C74.6306 79.672 73.6946 77.748 73.6946 75.889V75.33ZM76.8406 76.903H75.0596V77.787H76.8406V83.351H77.8546V72.574H76.8406V76.903ZM79.1806 72.301V83.949H80.2076V72.301H79.1806Z" fill="#151515"/>
<path fill-rule="evenodd" clip-rule="evenodd" d="M70.25 25C71.21 25 72 25.79 72 26.75V35.5C72 36.67 71.63 37.76 71 38.65V53.25C71 54.21 70.21 55 69.25 55H44.75C43.79 55 43 54.21 43 53.25V38.65C42.37 37.76 42 36.67 42 35.5V26.75C42 25.79 42.79 25 43.75 25H51.5H53H61H62.5H70.25ZM70.25 26.5H62.5V35.5C62.5 37.71 64.29 39.5 66.5 39.5C68.71 39.5 70.5 37.71 70.5 35.5V26.75C70.5 26.61 70.39 26.5 70.25 26.5ZM61 26.5H53V35.5C53 37.71 54.79 39.5 57 39.5C59.21 39.5 61 37.71 61 35.5V26.5ZM43.75 26.5C43.61 26.5 43.5 26.61 43.5 26.75V35.5C43.5 37.71 45.29 39.5 47.5 39.5C49.71 39.5 51.5 37.71 51.5 35.5V26.5H43.75ZM44.5 53.25C44.5 53.39 44.61 53.5 44.75 53.5H69.25C69.39 53.5 69.5 53.39 69.5 53.25V40.1C68.64 40.67 67.61 41 66.5 41C64.47 41 62.7 39.9 61.75 38.26C60.8 39.9 59.03 41 57 41C54.97 41 53.2 39.9 52.25 38.26C51.3 39.9 49.53 41 47.5 41C46.39 41 45.36 40.66 44.5 40.1V53.25ZM53 50.25C53 49.84 53.34 49.5 53.75 49.5H60.25C60.66 49.5 61 49.84 61 50.25C61 50.66 60.66 51 60.25 51H53.75C53.34 51 53 50.66 53 50.25Z" fill="#151515"/>
</svg>
