<svg width="20" height="20" viewBox="0 0 20 20" fill="none" xmlns="http://www.w3.org/2000/svg">
<path fill-rule="evenodd" clip-rule="evenodd" d="M10 4C8.61614 4 7.5 5.11614 7.5 6.5V7H12.5V6.5C12.5 5.11614 11.3839 4 10 4ZM14.5 7H13.5V6.5C13.5 4.56386 11.9361 3 10 3C8.06386 3 6.5 4.56386 6.5 6.5V7H5.5C4.67386 7 4 7.67386 4 8.5V15.5C4 16.3261 4.67386 17 5.5 17H14.5C15.3261 17 16 16.3261 16 15.5V8.5C16 7.67386 15.3261 7 14.5 7ZM5.5 8C5.22614 8 5 8.22614 5 8.5V15.5C5 15.7739 5.22614 16 5.5 16H14.5C14.7739 16 15 15.7739 15 15.5V8.5C15 8.22614 14.7739 8 14.5 8H5.5ZM10.5 10.5C10.5 10.2239 10.2761 10 10 10C9.72386 10 9.5 10.2239 9.5 10.5V13.5C9.5 13.7761 9.72386 14 10 14C10.2761 14 10.5 13.7761 10.5 13.5V10.5Z" fill="#151515"/>
</svg>
