<svg width="89" height="76" viewBox="0 0 89 76" fill="none" xmlns="http://www.w3.org/2000/svg">
<path d="M45.985 17C44.3354 17 42.9858 18.35 42.9858 20C42.9858 21.65 44.3354 23 45.985 23C47.6346 23 48.9842 21.65 48.9842 20C48.9842 18.35 47.6446 17 45.985 17ZM45.985 21.5C45.1552 21.5 44.4854 20.83 44.4854 20C44.4854 19.17 45.1552 18.5 45.985 18.5C46.8148 18.5 47.4846 19.17 47.4846 20C47.4846 20.83 46.8148 21.5 45.985 21.5Z" fill="#A0A0A0"/>
<path d="M65.5896 25.74L65.5297 25.63C65.4397 25.46 65.3397 25.3 65.2397 25.15C65.1797 25.06 65.0998 24.97 64.9598 24.81C64.8998 24.74 64.8298 24.67 64.7699 24.61C64.6399 24.48 64.4899 24.36 64.3 24.22L64.17 24.13C64.11 24.08 64.04 24.04 63.9801 24L50.7435 16.36C50.5136 16.06 50.2637 15.79 49.9937 15.54V7C49.9937 4.79 48.2042 3 45.9948 3C43.7853 3 41.9958 4.79 41.9958 7V15.53C41.7059 15.79 41.436 16.08 41.206 16.39L28.0295 24C27.9595 24.04 27.8995 24.09 27.8095 24.15L27.6796 24.24C27.5196 24.35 27.3796 24.47 27.2497 24.59C27.1797 24.66 27.1197 24.73 26.9897 24.87C26.9198 24.95 26.8398 25.04 26.7898 25.12C26.6698 25.28 26.5798 25.44 26.4799 25.63L26.4299 25.72C26.14 26.31 26 26.9 26 27.5V39C26 41.21 27.7895 43 29.999 43C32.2084 43 33.9979 41.21 33.9979 39H52.1831C52.2131 39 52.2431 39.02 52.2731 39.02C52.3031 39.02 52.3231 39.01 52.3531 39H58.0016C58.0016 41.21 59.7912 43 62.0006 43C64.21 43 65.9995 41.21 65.9995 39V27.5C66.0095 26.9 65.8596 26.31 65.5896 25.74ZM45.9948 37.5L50.5036 32.5H56.482L51.9532 37.5H45.9948ZM37.2671 37.5L41.8658 32.5H48.4841L43.9753 37.5H37.2671ZM58.0116 31H33.9979V29.94C33.9979 29.85 34.0479 29.77 34.1179 29.72L42.5057 24.88C43.4854 25.58 44.6851 26 45.9848 26C47.2844 26 48.4941 25.58 49.4739 24.87L57.8717 29.72C57.9516 29.76 57.9916 29.85 57.9916 29.94V31H58.0116ZM45.9848 24.5C43.5054 24.5 41.4859 22.48 41.4859 20C41.4859 17.52 43.5054 15.5 45.9848 15.5C48.4641 15.5 50.4836 17.52 50.4836 20C50.4836 22.48 48.4641 24.5 45.9848 24.5ZM43.4954 7C43.4954 5.62 44.6151 4.5 45.9948 4.5C47.3744 4.5 48.4941 5.62 48.4941 7V14.56C47.7343 14.2 46.8845 14 45.9848 14C45.095 14 44.2552 14.2 43.4954 14.55V7ZM29.999 41.5C28.6193 41.5 27.4996 40.38 27.4996 39V27.5C27.4996 27.13 27.5896 26.76 27.7995 26.33C27.8595 26.22 27.9095 26.12 27.9995 26.01C28.0395 25.96 28.0795 25.91 28.1794 25.8C28.2094 25.76 28.2394 25.73 28.2894 25.68C28.3694 25.6 28.4694 25.53 28.5593 25.46L28.1594 24.82L28.6393 25.4L40.1263 18.75C40.0363 19.15 39.9963 19.57 39.9963 19.99C39.9963 21.44 40.5062 22.76 41.366 23.8L33.3781 28.41C32.8382 28.72 32.4983 29.3 32.4983 29.93V39C32.4983 40.38 31.3786 41.5 29.999 41.5ZM33.9979 32.5H39.8264L35.2276 37.5H33.9979V32.5ZM53.9827 37.5L58.0116 33.05V37.5H53.9827ZM64.5099 39C64.5099 40.38 63.3902 41.5 62.0106 41.5C60.6309 41.5 59.5112 40.38 59.5112 39V29.94C59.5112 29.32 59.1713 28.74 58.6315 28.42L50.6236 23.8C51.4733 22.76 51.9832 21.44 51.9832 20C51.9832 19.56 51.9332 19.14 51.8432 18.73L63.2503 25.32L63.4402 25.46C63.5402 25.53 63.6302 25.6 63.7201 25.69C63.7601 25.72 63.7901 25.76 63.8801 25.87C63.9201 25.92 63.9601 25.96 64.0101 26.02C64.08 26.12 64.14 26.22 64.23 26.39C64.41 26.75 64.4999 27.12 64.4999 27.49V39H64.5099Z" fill="#A0A0A0"/>
<path d="M26.2585 58.4V59.472H29.1065V62.368H30.4185V54.848H29.1065V58.4H26.2585ZM27.1705 61.088C25.0585 60.592 23.5065 59.248 23.5065 57.648V57.312H26.6745V56.256H23.5065V54.768H22.1945V56.256H19.0105V57.312H22.1945V57.648C22.1945 59.344 20.6905 60.8 18.5625 61.36L19.1545 62.384C20.8825 61.904 22.2425 60.864 22.8665 59.472C23.5545 60.736 24.8985 61.664 26.6105 62.096L27.1705 61.088ZM22.4985 68V66.448H30.4185V63.056H21.1705V64.08H29.1225V65.472H21.2025V69.024H30.9625V68H22.4985ZM33.1533 56.384V57.44H38.3853C38.1453 60.8 36.3693 63.536 32.5133 65.424L33.2333 66.448C38.0013 64.096 39.6973 60.464 39.6973 56.384H33.1533ZM43.0253 54.848V60.592H39.6653V61.664H43.0253V69.184H44.3373V54.848H43.0253ZM50.656 64.896C49.36 64.896 48.416 63.968 48.416 62.688C48.416 61.392 49.36 60.464 50.656 60.464C51.968 60.464 52.912 61.392 52.912 62.688C52.912 63.968 51.968 64.896 50.656 64.896ZM50.656 59.376C48.64 59.376 47.184 60.752 47.184 62.688C47.184 64.64 48.64 65.984 50.656 65.984C52.704 65.984 54.16 64.64 54.16 62.688C54.16 60.752 52.704 59.376 50.656 59.376ZM51.296 55.008H49.984V57.136H46.368V58.192H54.832V57.136H51.296V55.008ZM59.856 60.736H57.504V54.848H56.192V69.184H57.504V61.84H59.856V60.736ZM61.2147 56.384V57.44H66.6067C66.3347 60.848 64.4147 63.6 60.5587 65.44L61.2627 66.512C66.0307 64.176 67.9347 60.528 67.9347 56.384H61.2147ZM70.8307 54.832V69.184H72.1427V54.832H70.8307Z" fill="#767676"/>
</svg>
