<svg width="89" height="76" viewBox="0 0 89 76" fill="none" xmlns="http://www.w3.org/2000/svg">
<path d="M61.93 21.28C61.92 21.22 61.91 21.16 61.9 21.09C61.86 20.71 61.8 20.34 61.73 19.97C61.73 19.95 61.72 19.93 61.72 19.91C60.76 15.26 57.37 11.52 52.84 10.12C52.83 10.12 52.81 10.11 52.8 10.11C52.47 10.01 52.13 9.92 51.79 9.85C51.69 9.82 51.6 9.8 51.5 9.78C51.23 9.73 50.95 9.69 50.68 9.65C50.52 9.63 50.36 9.6 50.2 9.58C50.18 9.58 50.16 9.57 50.14 9.57C50.13 9.57 50.12 9.57 50.11 9.57C49.72 9.53 49.32 9.51 48.92 9.51H47.64V5.85C47.64 4.83 46.81 4 45.79 4H27.85C26.83 4 26 4.83 26 5.85V33.73C26 34.75 26.83 35.58 27.85 35.58H32.1C32.28 38.05 34.32 40 36.82 40C39.33 40 41.36 38.05 41.54 35.58H49.22C49.4 38.04 51.43 40 53.94 40C56.45 40 58.48 38.05 58.66 35.58H60.15C61.17 35.58 62 34.75 62 33.73V22.6C62 22.15 61.98 21.71 61.93 21.28ZM50.82 11.19C50.89 11.2 50.97 11.21 51.04 11.22C51.15 11.24 51.25 11.26 51.36 11.29C51.63 11.35 51.9 11.41 52.17 11.49C52.22 11.5 52.27 11.52 52.32 11.54C55.09 12.39 57.42 14.26 58.88 16.7C58.89 16.72 58.9 16.73 58.91 16.75C59.06 17 59.2 17.27 59.33 17.53C59.38 17.63 59.42 17.72 59.47 17.82C59.55 18 59.63 18.19 59.7 18.38C59.76 18.54 59.83 18.71 59.88 18.87C59.92 18.99 59.95 19.11 59.99 19.22C60.06 19.45 60.13 19.68 60.18 19.91C60.19 19.95 60.19 19.98 60.2 20.02C60.34 20.64 60.43 21.28 60.47 21.93H50.81V11.19H50.82ZM48.92 11.02C49.05 11.02 49.18 11.03 49.32 11.04V21.94H47.65V11.02H48.92ZM36.82 38.5C35.03 38.5 33.57 37.04 33.57 35.25C33.57 33.46 35.03 32 36.82 32C38.61 32 40.07 33.46 40.07 35.25C40.07 37.04 38.62 38.5 36.82 38.5ZM36.82 30.5C34.6 30.5 32.75 32.03 32.23 34.09H27.85C27.65 34.09 27.5 33.93 27.5 33.74V5.85C27.5 5.65 27.66 5.5 27.85 5.5H45.79C45.99 5.5 46.14 5.66 46.14 5.85V34.08H41.41C40.89 32.03 39.04 30.5 36.82 30.5ZM53.94 38.5C52.15 38.5 50.69 37.04 50.69 35.25C50.69 33.46 52.14 32 53.94 32C55.74 32 57.19 33.46 57.19 35.25C57.19 37.04 55.73 38.5 53.94 38.5ZM60.5 33.73C60.5 33.93 60.34 34.08 60.15 34.08H58.53C58.01 32.02 56.16 30.49 53.94 30.49C51.72 30.49 49.87 32.02 49.35 34.08H47.65V23.44H60.5V33.73Z" fill="white"/>
<path d="M43.23 19.79C43.23 16.26 40.36 13.38 36.82 13.38C33.29 13.38 30.41 16.26 30.41 19.79C30.41 23.32 33.28 26.2 36.82 26.2C40.36 26.2 43.23 23.33 43.23 19.79ZM36.82 24.7C34.11 24.7 31.91 22.5 31.91 19.79C31.91 17.08 34.11 14.88 36.82 14.88C39.53 14.88 41.73 17.08 41.73 19.79C41.73 22.5 39.53 24.7 36.82 24.7Z" fill="white"/>
<path d="M55.45 25.51H57.93C58.34 25.51 58.68 25.17 58.68 24.76C58.68 24.35 58.34 24.01 57.93 24.01H55.45C55.04 24.01 54.7 24.35 54.7 24.76C54.7 25.17 55.04 25.51 55.45 25.51Z" fill="white"/>
<path d="M4.33069 60.696H6.12269V67.48C5.51469 67.512 4.92269 67.544 4.33069 67.56V60.696ZM7.32269 60.696H8.50669V59.64H1.93069V60.696H3.13069V67.576C2.58669 67.592 2.09069 67.592 1.65869 67.592L1.78669 68.68C3.69069 68.68 6.68269 68.616 8.87469 68.232L8.79469 67.272C8.33069 67.336 7.83469 67.368 7.32269 67.416V60.696ZM10.0427 61.912H8.17069V62.984H10.0427V64.968H8.17069V66.04H10.0427V71.432H11.2747V58.184H10.0427V61.912ZM12.7947 57.848V72.184H14.0587V57.848H12.7947ZM16.5694 59.384V60.44H21.9614C21.6894 63.848 19.7694 66.6 15.9134 68.44L16.6174 69.512C21.3854 67.176 23.2894 63.528 23.2894 59.384H16.5694ZM26.1854 57.832V72.184H27.4974V57.832H26.1854ZM39.6402 61.64H32.6002V59.352H39.6402V61.64ZM40.9362 58.312H31.3202V62.68H40.9362V58.312ZM42.6162 64.936V63.88H29.6242V64.936H35.4642V66.344H31.1922V67.336H39.6562V68.616H31.2402V72.024H41.3842V71H32.5202V69.576H40.9522V66.344H36.7762V64.936H42.6162ZM52.2091 67.512H48.2091V63.736H52.2091V67.512ZM56.8491 57.832V63.16H53.4891V58.968H52.2091V62.696H48.2091V58.968H46.9131V68.584H53.4891V64.216H56.8491V72.216H58.1611V57.832H56.8491ZM62.3998 64.296H67.6958V59.16H61.0398V60.232H66.3678V63.224H61.0878V68.728H62.2718C64.7358 68.728 66.9118 68.632 69.5038 68.2L69.3758 67.128C66.8638 67.528 64.7518 67.64 62.3998 67.64V64.296ZM70.7198 57.816V72.2H72.0318V57.816H70.7198ZM75.0226 59.384V60.44H80.4146C80.1426 63.848 78.2226 66.6 74.3666 68.44L75.0706 69.512C79.8386 67.176 81.7426 63.528 81.7426 59.384H75.0226ZM84.6386 57.832V72.184H85.9506V57.832H84.6386Z" fill="white"/>
</svg>
