<svg width="266" height="68" viewBox="0 0 266 68" fill="none" xmlns="http://www.w3.org/2000/svg">
<path d="M1.37003 53.549V54.433H5.64703C5.40003 57.189 3.80103 59.425 0.824032 60.92L1.40903 61.752C5.17903 59.867 6.70003 56.864 6.70003 53.549H1.37003ZM11.588 57.033H9.71603V52.301H8.65003V63.962H9.71603V57.917H11.588V57.033ZM20.557 52.314V58.567H21.623V52.314H20.557ZM14.109 59.139V63.806H21.623V59.139H20.57V60.569H15.162V59.139H14.109ZM15.162 61.401H20.57V62.948H15.162V61.401ZM15.357 52.86C13.602 52.86 12.328 53.952 12.328 55.538C12.328 57.15 13.602 58.229 15.357 58.229C17.125 58.229 18.412 57.15 18.412 55.538C18.412 53.952 17.125 52.86 15.357 52.86ZM15.357 53.744C16.54 53.744 17.372 54.485 17.372 55.538C17.372 56.604 16.54 57.345 15.357 57.345C14.2 57.345 13.368 56.604 13.368 55.538C13.368 54.485 14.2 53.744 15.357 53.744ZM32.932 52.301H31.866V60.855H32.932V52.301ZM30.384 58.112C28.655 57.475 27.472 55.889 27.472 54.134V52.951H26.406V54.134C26.406 55.954 25.236 57.644 23.481 58.32L24.04 59.191C25.405 58.619 26.458 57.488 26.952 56.071C27.472 57.397 28.499 58.45 29.825 58.957L30.384 58.112ZM26.497 62.831V60.062H25.431V63.702H33.283V62.831H26.497ZM40.874 55.616V56.5H43.201V59.373H44.28V52.301H43.201V55.616H40.874ZM41.576 58.06C39.86 57.54 38.651 56.24 38.651 54.784V54.563H41.225V53.705H38.651V52.249H37.585V53.705H34.998V54.563H37.585V54.784C37.585 56.357 36.415 57.774 34.699 58.359L35.219 59.178C36.597 58.723 37.65 57.735 38.144 56.461C38.677 57.592 39.743 58.463 41.082 58.879L41.576 58.06ZM40.419 63.117C38.664 63.117 37.611 62.623 37.611 61.804C37.611 60.998 38.664 60.504 40.419 60.504C42.2 60.504 43.253 60.998 43.253 61.804C43.253 62.623 42.2 63.117 40.419 63.117ZM40.419 59.672C38.027 59.672 36.545 60.452 36.545 61.804C36.545 63.169 38.027 63.949 40.419 63.949C42.837 63.949 44.319 63.169 44.319 61.804C44.319 60.452 42.837 59.672 40.419 59.672Z" fill="#151515"/>
<path d="M119.287 62.948H113.944V61.44H119.287V62.948ZM119.287 60.608H113.944V59.139H112.891V63.806H120.353V59.139H119.287V60.608ZM113.931 57.358C112.774 57.358 111.942 56.604 111.942 55.538C111.942 54.472 112.774 53.731 113.931 53.731C115.088 53.731 115.92 54.472 115.92 55.538C115.92 56.604 115.088 57.358 113.931 57.358ZM119.274 52.314V55.083H116.895C116.674 53.731 115.504 52.847 113.931 52.847C112.189 52.847 110.928 53.939 110.928 55.538C110.928 57.15 112.189 58.242 113.931 58.242C115.53 58.242 116.7 57.332 116.908 55.954H119.274V58.567H120.353V52.314H119.274ZM125.448 55.33H127.606V54.446H125.461V52.717H124.434V54.446H122.276V55.33H124.434V55.889C124.434 57.8 123.537 59.841 121.964 60.777L122.588 61.57C123.732 60.881 124.551 59.581 124.954 58.099C125.383 59.503 126.215 60.686 127.346 61.323L127.957 60.517C126.384 59.672 125.448 57.748 125.448 55.889V55.33ZM128.594 56.903H126.813V57.787H128.594V63.351H129.608V52.574H128.594V56.903ZM130.934 52.301V63.949H131.961V52.301H130.934ZM140.423 57.579C138.694 57.007 137.472 55.551 137.472 53.9V52.769H136.406V53.9C136.406 55.616 135.21 57.176 133.442 57.813L133.988 58.645C135.366 58.138 136.445 57.059 136.952 55.707C137.485 56.968 138.551 57.956 139.89 58.424L140.423 57.579ZM136.432 60.452H141.892V62.948H136.432V60.452ZM135.392 63.806H142.932V59.607H135.392V63.806ZM141.866 52.314V58.944H142.932V52.314H141.866ZM148.586 53.315H147.533V55.408C147.533 57.527 146.207 59.763 144.53 60.621L145.167 61.479C146.48 60.777 147.559 59.321 148.066 57.618C148.599 59.217 149.652 60.582 150.887 61.245L151.55 60.4C149.912 59.581 148.586 57.462 148.586 55.408V53.315ZM155.567 57.033H153.643V52.314H152.577V63.962H153.643V57.917H155.567V57.033Z" fill="#151515"/>
<path d="M221.37 53.549V54.433H225.647C225.4 57.189 223.801 59.425 220.824 60.92L221.409 61.752C225.179 59.867 226.7 56.864 226.7 53.549H221.37ZM231.588 57.033H229.716V52.301H228.65V63.962H229.716V57.917H231.588V57.033ZM240.557 52.314V58.567H241.623V52.314H240.557ZM234.109 59.139V63.806H241.623V59.139H240.57V60.569H235.162V59.139H234.109ZM235.162 61.401H240.57V62.948H235.162V61.401ZM235.357 52.86C233.602 52.86 232.328 53.952 232.328 55.538C232.328 57.15 233.602 58.229 235.357 58.229C237.125 58.229 238.412 57.15 238.412 55.538C238.412 53.952 237.125 52.86 235.357 52.86ZM235.357 53.744C236.54 53.744 237.372 54.485 237.372 55.538C237.372 56.604 236.54 57.345 235.357 57.345C234.2 57.345 233.368 56.604 233.368 55.538C233.368 54.485 234.2 53.744 235.357 53.744ZM253.296 56.11C251.229 55.811 249.188 54.498 249.188 53.016V52.496H248.096V53.016C248.096 54.537 246.068 55.811 243.988 56.11L244.378 56.942C246.185 56.656 247.914 55.733 248.642 54.394C249.383 55.72 251.099 56.656 252.893 56.942L253.296 56.11ZM248.642 63.13C246.796 63.13 245.717 62.688 245.717 61.882C245.717 61.089 246.796 60.634 248.642 60.634C250.462 60.634 251.541 61.089 251.541 61.882C251.541 62.688 250.462 63.13 248.642 63.13ZM248.642 59.815C246.146 59.815 244.638 60.556 244.638 61.882C244.638 63.221 246.146 63.962 248.642 63.962C251.125 63.962 252.62 63.221 252.62 61.882C252.62 60.556 251.125 59.815 248.642 59.815ZM243.364 57.865V58.736H253.907V57.865H243.364ZM264.241 52.314H263.175V60.829H264.241V52.314ZM255.986 55.98C255.986 54.849 256.844 54.043 257.975 54.043C259.132 54.043 259.99 54.849 259.99 55.98C259.99 57.137 259.132 57.943 257.975 57.943C256.844 57.943 255.986 57.137 255.986 55.98ZM261.03 55.98C261.03 54.303 259.717 53.12 257.975 53.12C256.246 53.12 254.946 54.303 254.946 55.98C254.946 57.67 256.246 58.866 257.975 58.866C259.717 58.866 261.03 57.67 261.03 55.98ZM257.806 62.831V59.958H256.74V63.702H264.592V62.831H257.806Z" fill="#151515"/>
<rect x="3" width="40" height="40" rx="8" fill="#ECECEC"/>
<path d="M19.9999 26.3749C19.8099 26.3749 19.6199 26.3049 19.4699 26.1549L14.2199 20.9049C13.9299 20.6149 13.9299 20.1349 14.2199 19.8449C14.5099 19.5549 14.9899 19.5549 15.2799 19.8449L19.9999 24.5649L30.7199 13.8449C31.0099 13.5549 31.4899 13.5549 31.7799 13.8449C32.0699 14.1349 32.0699 14.6149 31.7799 14.9049L20.5299 26.1549C20.3799 26.3049 20.1899 26.3749 19.9999 26.3749Z" fill="#151515"/>
<rect x="223" width="40" height="40" rx="8" fill="#ECECEC"/>
<path d="M243 10C237.49 10 233 14.49 233 20C233 20.41 233.34 20.75 233.75 20.75H244.44L242.47 22.72C242.18 23.01 242.18 23.49 242.47 23.78C242.62 23.93 242.81 24 243 24C243.19 24 243.38 23.93 243.53 23.78L246.78 20.53C247.07 20.24 247.07 19.76 246.78 19.47L243.53 16.22C243.24 15.93 242.76 15.93 242.47 16.22C242.18 16.51 242.18 16.99 242.47 17.28L244.44 19.25H234.53C234.91 14.91 238.57 11.5 243 11.5C247.69 11.5 251.5 15.31 251.5 20C251.5 24.69 247.69 28.5 243 28.5C240.53 28.5 238.18 27.43 236.57 25.56C236.3 25.25 235.82 25.21 235.51 25.48C235.2 25.75 235.16 26.22 235.43 26.54C237.33 28.74 240.09 30 243 30C248.51 30 253 25.51 253 20C253 14.49 248.51 10 243 10Z" fill="#151515"/>
<rect x="113" width="40" height="40" rx="8" fill="#ECECEC"/>
<path fill-rule="evenodd" clip-rule="evenodd" d="M125.75 12.5C125.614 12.5 125.5 12.6142 125.5 12.75V27.25C125.5 27.3858 125.614 27.5 125.75 27.5H140.25C140.386 27.5 140.5 27.3858 140.5 27.25V25.75C140.5 25.3358 140.836 25 141.25 25C141.664 25 142 25.3358 142 25.75V27.25C142 28.2142 141.214 29 140.25 29H125.75C124.786 29 124 28.2142 124 27.25V12.75C124 11.7858 124.786 11 125.75 11H127.25C127.664 11 128 11.3358 128 11.75C128 12.1642 127.664 12.5 127.25 12.5H125.75ZM134 16.75C134.414 16.75 134.75 16.4142 134.75 16C134.75 15.5858 134.414 15.25 134 15.25C133.586 15.25 133.25 15.5858 133.25 16C133.25 16.4142 133.586 16.75 134 16.75ZM136.75 16C136.75 16.4142 136.414 16.75 136 16.75C135.586 16.75 135.25 16.4142 135.25 16C135.25 15.5858 135.586 15.25 136 15.25C136.414 15.25 136.75 15.5858 136.75 16ZM135 12.5C133.067 12.5 131.5 14.067 131.5 16C131.5 17.933 133.067 19.5 135 19.5C135.932 19.5 136.779 19.1357 137.406 18.5417C137.426 18.5167 137.447 18.4926 137.47 18.4697C137.493 18.4467 137.517 18.4256 137.542 18.4062C138.136 17.779 138.5 16.9321 138.5 16C138.5 14.067 136.933 12.5 135 12.5ZM139.026 18.9654C139.638 18.1358 140 17.1101 140 16C140 13.2386 137.761 11 135 11C132.239 11 130 13.2386 130 16C130 18.7614 132.239 21 135 21C136.11 21 137.136 20.6382 137.965 20.0261L140.72 22.7803C141.013 23.0732 141.487 23.0732 141.78 22.7803C142.073 22.4874 142.073 22.0126 141.78 21.7197L139.026 18.9654Z" fill="#151515"/>
</svg>
