<svg width="30" height="30" viewBox="0 0 30 30" fill="none" xmlns="http://www.w3.org/2000/svg">
<path d="M30 15C30 23.2843 23.2843 30 15 30C6.71573 30 0 23.2843 0 15C0 6.71573 6.71573 0 15 0C23.2843 0 30 6.71573 30 15Z" fill="#46B3FC"/>
<path d="M13.0014 20C12.7413 20 12.4912 19.8999 12.2911 19.7098L8.28967 15.7068C7.89954 15.3165 7.89954 14.686 8.28967 14.2957C8.67981 13.9054 9.31004 13.9054 9.70018 14.2957L13.0014 17.5882L20.294 10.2927C20.6841 9.90243 21.3143 9.90243 21.7045 10.2927C22.0946 10.683 22.0946 11.3135 21.7045 11.7038L13.7016 19.7098C13.5115 19.8999 13.2615 20 13.0014 20Z" fill="white"/>
</svg>
