<svg width="20" height="20" viewBox="0 0 20 20" fill="none" xmlns="http://www.w3.org/2000/svg">
<path d="M15.5 3H4.5C3.67 3 3 3.67 3 4.5V15.5C3 16.33 3.67 17 4.5 17H15.5C16.33 17 17 16.33 17 15.5V4.5C17 3.67 16.33 3 15.5 3ZM16 15.5C16 15.78 15.78 16 15.5 16H4.5C4.22 16 4 15.78 4 15.5V4.5C4 4.22 4.22 4 4.5 4H15.5C15.78 4 16 4.22 16 4.5V15.5Z" fill="#06001D"/>
<path d="M13.5 7H6.5C6.22 7 6 7.22 6 7.5C6 7.78 6.22 8 6.5 8H13.5C13.78 8 14 7.78 14 7.5C14 7.22 13.78 7 13.5 7Z" fill="#06001D"/>
<path d="M13.5 11H6.5C6.22 11 6 11.22 6 11.5C6 11.78 6.22 12 6.5 12H13.5C13.78 12 14 11.78 14 11.5C14 11.22 13.78 11 13.5 11Z" fill="#06001D"/>
</svg>
