<svg width="30" height="30" viewBox="0 0 30 30" fill="none" xmlns="http://www.w3.org/2000/svg">
<path d="M1.75 0H5.25C5.66 0 6 0.34 6 0.75C6 1.16 5.66 1.5 5.25 1.5H1.75C1.61 1.5 1.5 1.61 1.5 1.75V5.25C1.5 5.66 1.16 6 0.75 6C0.34 6 0 5.66 0 5.25V1.75C0 0.79 0.79 0 1.75 0Z" fill="#333333"/>
<path d="M1.5 17.25C1.5 17.66 1.16 18 0.75 18C0.34 18 0 17.66 0 17.25V12.75C0 12.34 0.34 12 0.75 12C1.16 12 1.5 12.34 1.5 12.75V17.25Z" fill="#333333"/>
<path d="M5.25 28.5H1.75C1.61 28.5 1.5 28.39 1.5 28.25V24.75C1.5 24.34 1.16 24 0.75 24C0.34 24 0 24.34 0 24.75V28.25C0 29.21 0.79 30 1.75 30H5.25C5.66 30 6 29.66 6 29.25C6 28.84 5.66 28.5 5.25 28.5Z" fill="#333333"/>
<path d="M12.75 28.5H17.25C17.66 28.5 18 28.84 18 29.25C18 29.66 17.66 30 17.25 30H12.75C12.34 30 12 29.66 12 29.25C12 28.84 12.34 28.5 12.75 28.5Z" fill="#333333"/>
<path d="M29.25 24C28.84 24 28.5 24.34 28.5 24.75V28.25C28.5 28.39 28.39 28.5 28.25 28.5H24.75C24.34 28.5 24 28.84 24 29.25C24 29.66 24.34 30 24.75 30H28.25C29.21 30 30 29.21 30 28.25V24.75C30 24.34 29.66 24 29.25 24Z" fill="#333333"/>
<path d="M28.5 12.75C28.5 12.34 28.84 12 29.25 12C29.66 12 30 12.34 30 12.75V17.25C30 17.66 29.66 18 29.25 18C28.84 18 28.5 17.66 28.5 17.25V12.75Z" fill="#333333"/>
<path d="M28.25 0H24.75C24.34 0 24 0.34 24 0.75C24 1.16 24.34 1.5 24.75 1.5H28.25C28.39 1.5 28.5 1.61 28.5 1.75V5.25C28.5 5.66 28.84 6 29.25 6C29.66 6 30 5.66 30 5.25V1.75C30 0.79 29.21 0 28.25 0Z" fill="#333333"/>
<path d="M17.25 1.5H12.75C12.34 1.5 12 1.16 12 0.75C12 0.34 12.34 0 12.75 0H17.25C17.66 0 18 0.34 18 0.75C18 1.16 17.66 1.5 17.25 1.5Z" fill="#333333"/>
<path d="M16.16 7.43514C15.5 6.85495 14.51 6.85495 13.85 7.43514L7.6 12.9469C7.22 13.277 7 13.7571 7 14.2573V21.2194C7 22.1997 7.79 23 8.75 23H21.25C22.21 23 23 22.1997 23 21.2194V14.2573C23 13.7571 22.78 13.277 22.41 12.9469L16.16 7.43514ZM16.5 21.4995H13.5V17.9984C13.5 17.1682 14.17 16.498 15 16.498C15.83 16.498 16.5 17.1682 16.5 17.9984V21.4995ZM21.5 21.2194C21.5 21.3695 21.39 21.4895 21.25 21.4895H18V17.9984C18 16.3479 16.65 14.9975 15 14.9975C13.35 14.9975 12 16.3479 12 17.9984V21.4995H8.75C8.61 21.4995 8.5 21.3795 8.5 21.2294V14.2673C8.5 14.1972 8.53 14.1272 8.58 14.0772L14.83 8.56549C14.88 8.51547 14.94 8.49547 15 8.49547C15.06 8.49547 15.12 8.51547 15.17 8.55549L21.42 14.0672C21.47 14.1172 21.5 14.1872 21.5 14.2573V21.2194Z" fill="#333333"/>
</svg>
