<svg width="18" height="18" viewBox="0 0 18 18" fill="none" xmlns="http://www.w3.org/2000/svg">
<circle cx="9" cy="9" r="9" fill="#38E074"/>
<path d="M11.7901 14H6.21005C5.73005 14 5.31005 13.72 5.11005 13.27C4.90005 12.8 4.99005 12.26 5.33005 11.89L7.98005 9L5.33005 6.11C4.99005 5.74 4.90005 5.2 5.11005 4.73C5.31005 4.28 5.73005 4 6.21005 4H11.7901C12.2701 4 12.6901 4.28 12.8901 4.73C13.1001 5.2 13.0101 5.74 12.6701 6.11L10.0201 9L12.6701 11.89C13.0101 12.26 13.1001 12.8 12.8901 13.27C12.6901 13.72 12.2701 14 11.7901 14ZM6.81005 12.5H11.1901L9.00005 10.11L6.81005 12.5ZM6.81005 5.5L9.00005 7.89L11.1901 5.5H6.81005Z" fill="white"/>
</svg>
