<svg width="18" height="18" viewBox="0 0 18 18" fill="none" xmlns="http://www.w3.org/2000/svg">
<circle cx="9" cy="9" r="9" fill="#959595"/>
<path d="M10.063 8.99994L13.7848 5.27994C14.075 4.98994 14.075 4.50994 13.7848 4.21994C13.4947 3.92994 13.0144 3.92994 12.7243 4.21994L9.00244 7.93994L5.28058 4.21994C4.99044 3.92994 4.5102 3.92994 4.22005 4.21994C3.92991 4.50994 3.92991 4.98994 4.22005 5.27994L7.94191 8.99994L4.22005 12.7199C3.92991 13.0099 3.92991 13.4899 4.22005 13.7799C4.37013 13.9299 4.56022 13.9999 4.75032 13.9999C4.94041 13.9999 5.13051 13.9299 5.28058 13.7799L9.00244 10.0599L12.7243 13.7799C12.8744 13.9299 13.0645 13.9999 13.2546 13.9999C13.4447 13.9999 13.6348 13.9299 13.7848 13.7799C14.075 13.4899 14.075 13.0099 13.7848 12.7199L10.063 8.99994Z" fill="white"/>
</svg>
