<svg width="28" height="32" viewBox="0 0 28 32" fill="none" xmlns="http://www.w3.org/2000/svg">
<path fill-rule="evenodd" clip-rule="evenodd" d="M21 4.5H27.25C27.66 4.5 28 4.84 28 5.25C28 5.66 27.66 6 27.25 6H25V29.74C25 30.99 23.93 32 22.61 32H5.39C4.07 32 3 30.99 3 29.74V6H0.75C0.34 6 0 5.66 0 5.25C0 4.84 0.34 4.5 0.75 4.5H7V3.18C7 1.42 8.42 0 10.17 0H17.82C19.58 0 21 1.42 21 3.18V4.5ZM10.18 1.5C9.25 1.5 8.5 2.26 8.5 3.18H8.51V4.5H19.51V3.18C19.51 2.25 18.75 1.5 17.83 1.5H10.18ZM22.61 30.5C23.1 30.5 23.5 30.16 23.5 29.74V6H21H7H4.5V29.74C4.5 30.16 4.9 30.5 5.39 30.5H22.61ZM10.75 13C10.34 13 10 13.34 10 13.75V22.25C10 22.66 10.34 23 10.75 23C11.16 23 11.5 22.66 11.5 22.25V13.75C11.5 13.34 11.16 13 10.75 13ZM17.25 13C16.84 13 16.5 13.34 16.5 13.75V22.25C16.5 22.66 16.84 23 17.25 23C17.66 23 18 22.66 18 22.25V13.75C18 13.34 17.66 13 17.25 13Z" fill="#333333"/>
</svg>
