<svg width="18" height="18" viewBox="0 0 18 18" fill="none" xmlns="http://www.w3.org/2000/svg">
<path fill-rule="evenodd" clip-rule="evenodd" d="M1 6C1.55 6 2 5.55 2 5V2H5C5.55 2 6 1.55 6 1C6 0.45 5.55 0 5 0H2C0.9 0 0 0.9 0 2V5C0 5.55 0.45 6 1 6ZM5 16H2V13C2 12.45 1.55 12 1 12C0.45 12 0 12.45 0 13V16C0 17.1 0.9 18 2 18H5C5.55 18 6 17.55 6 17C6 16.45 5.55 16 5 16ZM16 13C16 12.45 16.45 12 17 12C17.55 12 18 12.45 18 13V16C18 17.1 17.1 18 16 18H13C12.45 18 12 17.55 12 17C12 16.45 12.45 16 13 16H16V13ZM16 0H13C12.45 0 12 0.45 12 1C12 1.55 12.45 2 13 2H16V5C16 5.55 16.45 6 17 6C17.55 6 18 5.55 18 5V2C18 0.9 17.1 0 16 0ZM12.7098 5.30006C13.0998 5.69006 13.0998 6.32006 12.7098 6.71006L9.99982 9.41006V13.0001C9.99982 13.5501 9.54982 14.0001 8.99982 14.0001C8.44982 14.0001 7.99982 13.5501 7.99982 13.0001V9.41006L5.29982 6.70006C4.90982 6.31006 4.90982 5.68006 5.29982 5.29006C5.68982 4.90006 6.31982 4.90006 6.70982 5.29006L8.99982 7.59006L11.2998 5.30006C11.6898 4.91006 12.3198 4.91006 12.7098 5.30006Z" fill="#C0C0C0"/>
</svg>
