<svg width="115" height="110" viewBox="0 0 115 110" fill="none" xmlns="http://www.w3.org/2000/svg">
<path d="M61.4444 45.5556L69 38L68 54H53L61.4444 45.5556Z" fill="#2CB3FF"/>
<path d="M40.8904 78.008C39.1744 77.423 38.0564 75.98 38.0564 74.433V73.978H40.6304V73.12H34.3774V73.978H36.9904V74.446C36.9904 76.11 35.8204 77.618 34.0654 78.229L34.6244 79.074C35.9894 78.567 37.0424 77.54 37.5364 76.24C38.0434 77.436 39.0444 78.385 40.3444 78.84L40.8904 78.008ZM35.5734 80.816H42.0994V83.975H43.1654V79.958H35.5734V80.816ZM44.8944 75.369H43.1654V72.314H42.0994V79.334H43.1654V76.253H44.8944V75.369ZM53.9674 82.948H48.6244V81.44H53.9674V82.948ZM53.9674 80.608H48.6244V79.139H47.5714V83.806H55.0334V79.139H53.9674V80.608ZM48.6114 77.358C47.4544 77.358 46.6224 76.604 46.6224 75.538C46.6224 74.472 47.4544 73.731 48.6114 73.731C49.7684 73.731 50.6004 74.472 50.6004 75.538C50.6004 76.604 49.7684 77.358 48.6114 77.358ZM53.9544 72.314V75.083H51.5754C51.3544 73.731 50.1844 72.847 48.6114 72.847C46.8694 72.847 45.6084 73.939 45.6084 75.538C45.6084 77.15 46.8694 78.242 48.6114 78.242C50.2104 78.242 51.3804 77.332 51.5884 75.954H53.9544V78.567H55.0334V72.314H53.9544ZM68.5606 72.301H67.4946V78.281H68.5606V72.301ZM60.2926 75.317C60.2926 74.303 61.1376 73.588 62.2686 73.588C63.4126 73.588 64.2446 74.303 64.2446 75.317C64.2446 76.318 63.4126 77.033 62.2686 77.033C61.1376 77.033 60.2926 76.318 60.2926 75.317ZM65.2846 75.317C65.2846 73.77 64.0106 72.717 62.2686 72.717C60.5266 72.717 59.2656 73.77 59.2656 75.317C59.2656 76.851 60.5266 77.891 62.2686 77.891C64.0106 77.891 65.2846 76.851 65.2846 75.317ZM62.0866 82.961V81.674H68.5606V78.853H61.0076V79.698H67.5076V80.881H61.0336V83.806H68.9506V82.961H62.0866ZM76.5286 75.33V76.201H78.8296V79.256H79.9086V72.314H78.8296V75.33H76.5286ZM77.1786 77.982C75.4886 77.384 74.3446 75.915 74.3446 74.42V74.017H76.9056V73.159H70.6786V74.017H73.2786V74.42C73.2786 76.097 72.0826 77.67 70.3406 78.307L70.8996 79.152C72.2646 78.632 73.3436 77.54 73.8376 76.188C74.3446 77.384 75.3456 78.346 76.6456 78.814L77.1786 77.982ZM76.0606 83.13C74.3056 83.13 73.2396 82.636 73.2396 81.791C73.2396 80.946 74.3056 80.439 76.0606 80.439C77.8156 80.439 78.8816 80.946 78.8816 81.791C78.8816 82.636 77.8156 83.13 76.0606 83.13ZM76.0606 79.62C73.6686 79.62 72.1736 80.413 72.1736 81.791C72.1736 83.169 73.6686 83.962 76.0606 83.962C78.4526 83.962 79.9346 83.169 79.9346 81.791C79.9346 80.413 78.4526 79.62 76.0606 79.62Z" fill="#151515"/>
<path fill-rule="evenodd" clip-rule="evenodd" d="M67.2591 27H63.4174L63.1973 26.27C62.9772 25.52 62.2569 25 61.4565 25H54.5534C53.753 25 53.0327 25.52 52.8126 26.27L52.5925 27H48.7508C47.7904 27 47 27.79 47 28.75V53.24C47 54.21 47.7904 55 48.7508 55H67.2491C68.2196 55 68.9999 54.21 68.9999 53.25V28.75C69.0099 27.79 68.2196 27 67.2591 27ZM54.5534 26.5H61.4465C61.5866 26.5 61.7166 26.58 61.7566 26.7L62.497 29.2C62.517 29.26 62.507 29.32 62.457 29.38C62.4269 29.42 62.3469 29.5 62.1868 29.5H53.8131C53.6612 29.5 53.5813 29.419 53.5479 29.385L53.5429 29.38C53.5029 29.32 53.4929 29.26 53.5129 29.2L54.2533 26.7C54.2833 26.58 54.4133 26.5 54.5534 26.5ZM67.5092 53.25C67.5092 53.39 67.3992 53.5 67.2591 53.5H48.7508C48.6107 53.5 48.5007 53.39 48.5007 53.25V28.75C48.5007 28.61 48.6107 28.5 48.7508 28.5H52.1423L52.0723 28.77C51.9222 29.29 52.0223 29.84 52.3424 30.27C52.6826 30.73 53.2328 31 53.8131 31H62.1868C62.7671 31 63.3173 30.73 63.6575 30.27C63.9876 29.83 64.0877 29.29 63.9276 28.77L63.8576 28.5H67.2591C67.3992 28.5 67.5092 28.61 67.5092 28.75V53.25ZM64.25 37.25H51.75C51.34 37.25 51 37.59 51 38C51 38.41 51.34 38.75 51.75 38.75H64.25C64.66 38.75 65 38.41 65 38C65 37.59 64.66 37.25 64.25 37.25ZM51.75 45.25H64.25C64.66 45.25 65 45.59 65 46C65 46.41 64.66 46.75 64.25 46.75H51.75C51.34 46.75 51 46.41 51 46C51 45.59 51.34 45.25 51.75 45.25Z" fill="#151515"/>
</svg>
