<svg width="36" height="36" viewBox="0 0 36 36" fill="none" xmlns="http://www.w3.org/2000/svg">
<rect opacity="0.6" x="11" y="17" width="4" height="4" fill="#2CB3FF"/>
<rect opacity="0.6" x="21" y="17" width="4" height="4" fill="#2CB3FF"/>
<rect opacity="0.6" x="21" y="25" width="4" height="4" fill="#2CB3FF"/>
<rect opacity="0.6" x="11" y="25" width="4" height="4" fill="#2CB3FF"/>
<path opacity="0.6" d="M14.5 4L13.5 8.5L14.5 9.5C15 10 15 9.5 15.5 9.5C16 9.5 16 9.5 17 10C18 10.5 18.5 10 19.5 10C20.5 10 20.5 10 21 9.5C21.5 9 21.5 9.5 22 9L22.5 8.5C23 8 22.5 7.5 22.5 7C22.5 6.6 22.1667 6.16667 22 6C21.8333 5.5 21.4 4.4 21 4C20.5 3.5 20.5 3.5 20 3.5C19.5 3.5 19 3 18.5 3H17L14.5 4Z" fill="#2CB3FF"/>
<path fill-rule="evenodd" clip-rule="evenodd" d="M29.9992 32.5H31.2492C31.6692 32.5 31.9992 32.84 31.9992 33.25C31.9992 33.66 31.6592 34 31.2492 34H29.9992H5.99921H4.74921C4.33921 34 3.99921 33.67 3.99921 33.25C3.99921 32.83 4.33921 32.5 4.74921 32.5H5.99921V14H5.77921C5.19921 14 4.64921 13.72 4.31921 13.25C3.98921 12.78 3.90921 12.21 4.09921 11.67L5.70921 7.17001C5.95921 6.47001 6.62921 6.00001 7.38921 6.00001H13.1492C13.6392 3.89001 15.3692 2.23001 17.5192 2.02001C18.9292 1.90001 20.3292 2.35001 21.3692 3.30001C22.1592 4.02001 22.6892 4.97001 22.8992 6.00001H28.6092C29.3692 6.00001 30.0392 6.47001 30.2892 7.17001L31.8992 11.67C32.0892 12.21 32.0092 12.78 31.6792 13.25C31.3492 13.72 30.7992 14 30.2192 14H29.9992V32.5ZM17.6492 3.51001C15.8892 3.68001 14.4992 5.29001 14.4992 7.18001V8.75001C14.4992 8.89001 14.6092 9.00001 14.7492 9.00001H21.2492C21.3892 9.00001 21.4992 8.89001 21.4992 8.75001V7.00001C21.4992 6.01001 21.0792 5.07001 20.3492 4.41001C19.6992 3.82001 18.8692 3.50001 17.9992 3.50001C17.8892 3.50001 17.7692 3.50001 17.6492 3.51001ZM5.50921 12.17C5.47921 12.26 5.50921 12.34 5.53921 12.38C5.56921 12.42 5.63921 12.5 5.77921 12.5H30.2192C30.3592 12.5 30.4392 12.42 30.4592 12.38C30.4892 12.33 30.5192 12.26 30.4892 12.17L28.8792 7.67001C28.8392 7.57001 28.7292 7.50001 28.6092 7.50001H22.9992V8.75001C22.9992 9.71001 22.2192 10.5 21.2492 10.5H14.7492C13.7892 10.5 12.9992 9.71001 12.9992 8.75001V7.50001H7.38921C7.26921 7.50001 7.15921 7.57001 7.11921 7.67001L5.50921 12.17ZM7.49921 14V32.5H28.4992V14H7.49921ZM13.91 16H12.09C10.94 16 10 16.94 10 18.09V19.91C10 21.06 10.94 22 12.09 22H13.91C15.06 22 16 21.06 16 19.91V18.09C16 16.94 15.06 16 13.91 16ZM14.5 19.91C14.5 20.24 14.23 20.5 13.91 20.5H12.09C11.76 20.5 11.5 20.23 11.5 19.91V18.09C11.5 17.76 11.77 17.5 12.09 17.5H13.91C14.24 17.5 14.5 17.77 14.5 18.09V19.91ZM23.91 16H22.09C20.94 16 20 16.94 20 18.09V19.91C20 21.06 20.94 22 22.09 22H23.91C25.06 22 26 21.06 26 19.91V18.09C26 16.94 25.06 16 23.91 16ZM24.5 19.91C24.5 20.24 24.23 20.5 23.91 20.5H22.09C21.76 20.5 21.5 20.23 21.5 19.91V18.09C21.5 17.76 21.77 17.5 22.09 17.5H23.91C24.24 17.5 24.5 17.77 24.5 18.09V19.91ZM12.09 24H13.91C15.06 24 16 24.94 16 26.09V27.91C16 29.06 15.06 30 13.91 30H12.09C10.94 30 10 29.06 10 27.91V26.09C10 24.94 10.94 24 12.09 24ZM13.91 28.5C14.23 28.5 14.5 28.24 14.5 27.91V26.09C14.5 25.77 14.24 25.5 13.91 25.5H12.09C11.77 25.5 11.5 25.76 11.5 26.09V27.91C11.5 28.23 11.76 28.5 12.09 28.5H13.91ZM23.91 24H22.09C20.94 24 20 24.94 20 26.09V27.91C20 29.06 20.94 30 22.09 30H23.91C25.06 30 26 29.06 26 27.91V26.09C26 24.94 25.06 24 23.91 24ZM24.5 27.91C24.5 28.24 24.23 28.5 23.91 28.5H22.09C21.76 28.5 21.5 28.23 21.5 27.91V26.09C21.5 25.76 21.77 25.5 22.09 25.5H23.91C24.24 25.5 24.5 25.77 24.5 26.09V27.91Z" fill="#333333"/>
</svg>
