<svg width="36" height="36" viewBox="0 0 36 36" fill="none" xmlns="http://www.w3.org/2000/svg">
<rect opacity="0.6" x="10" y="12" width="16" height="4" fill="#2CB3FF"/>
<path d="M18 3C10.83 3 5 8.83 5 16V20.75V21V26.5V28V30C5 31.65 6.35 33 8 33C9.65 33 11 31.65 11 30V28H25V30C25 31.65 26.35 33 28 33C29.65 33 31 31.65 31 30V28V26.5V21V20.75V16C31 8.83 25.17 3 18 3ZM18 4.5C24.34 4.5 29.5 9.66 29.5 16V17.3C28.82 16.66 27.96 16.23 27 16.07V12.75C27 11.79 26.21 11 25.25 11H19C18.63 11 18.28 11.12 18 11.32C17.72 11.12 17.37 11 17 11H10.75C9.79 11 9 11.79 9 12.75V16.08C8.04 16.23 7.18 16.67 6.5 17.31V16C6.5 9.66 11.66 4.5 18 4.5ZM17.25 16H10.5V12.75C10.5 12.61 10.61 12.5 10.75 12.5H17C17.14 12.5 17.25 12.61 17.25 12.75V16ZM18.75 12.75C18.75 12.61 18.86 12.5 19 12.5H25.25C25.39 12.5 25.5 12.61 25.5 12.75V16H18.75V12.75ZM9.5 30C9.5 30.83 8.83 31.5 8 31.5C7.17 31.5 6.5 30.83 6.5 30V28H9.5V30ZM29.5 30C29.5 30.83 28.83 31.5 28 31.5C27.17 31.5 26.5 30.83 26.5 30V28H29.5V30ZM29.5 26.5H25H11H6.5V21V20.75C6.5 18.96 7.96 17.5 9.75 17.5H17.25H18.75H26.25C28.04 17.5 29.5 18.96 29.5 20.75V21V26.5Z" fill="#333333"/>
</svg>
