<svg width="36" height="36" viewBox="0 0 36 36" fill="none" xmlns="http://www.w3.org/2000/svg">
<rect opacity="0.5" x="11" y="13" width="14" height="4" fill="#2CB3FF"/>
<path fill-rule="evenodd" clip-rule="evenodd" d="M4.75 3H31.25C32.21 3 33 3.79 33 4.75V7.25C33 8.21 32.21 9 31.25 9H31V31.25C31 32.21 30.21 33 29.25 33H6.75C5.79 33 5 32.21 5 31.25V9H4.75C3.79 9 3 8.21 3 7.25V4.75C3 3.79 3.79 3 4.75 3ZM29.25 31.5C29.39 31.5 29.5 31.39 29.5 31.25V9H6.5V31.25C6.5 31.39 6.61 31.5 6.75 31.5H29.25ZM31.25 7.5C31.39 7.5 31.5 7.39 31.5 7.25V4.75C31.5 4.61 31.39 4.5 31.25 4.5H4.75C4.61 4.5 4.5 4.61 4.5 4.75V7.25C4.5 7.39 4.61 7.5 4.75 7.5H5H31H31.25ZM24.3 18H11.7C10.76 18 10 17.24 10 16.3V13.7C10 12.76 10.76 12 11.7 12H24.3C25.24 12 26 12.76 26 13.7V16.3C26 17.24 25.24 18 24.3 18ZM11.7 13.5C11.59 13.5 11.5 13.59 11.5 13.7V16.3C11.5 16.41 11.59 16.5 11.7 16.5H24.3C24.41 16.5 24.5 16.41 24.5 16.3V13.7C24.5 13.59 24.41 13.5 24.3 13.5H11.7Z" fill="#333333"/>
</svg>
