<svg width="36" height="36" viewBox="0 0 36 36" fill="none" xmlns="http://www.w3.org/2000/svg">
<g opacity="0.6">
<path d="M23 4H13L15.5 9L19.5 9.5L22.5 6.5L23 4Z" fill="#2CB3FF"/>
<path d="M4 20H8V24H4V20Z" fill="#2CB3FF"/>
<path d="M28 20H32V24H28V20Z" fill="#2CB3FF"/>
</g>
<path d="M30.95 7.64L24.43 3.13L24.24 3H11.76L11.57 3.13L5.05 7.64C3.77 8.53 3 9.99 3 11.55V23.25C3 24.21 3.79 25 4.75 25H8V27.58C8 29.84 9.57 31.84 11.74 32.32C13.82 32.78 15.91 33 18 33C20.09 33 22.18 32.77 24.26 32.31C26.43 31.83 28 29.84 28 27.57V25H31.25C32.21 25 33 24.21 33 23.25V11.55C33 9.99 32.23 8.53 30.95 7.64ZM31.5 11.55V19.25H28V7.43L30.1 8.88C30.98 9.48 31.5 10.48 31.5 11.55ZM22.45 4.5C22.21 6.75 20.32 8.52 18 8.52C15.68 8.52 13.79 6.75 13.55 4.5H22.45ZM5.9 8.87L8 7.42V19.25H4.5V11.55C4.5 10.48 5.02 9.48 5.9 8.87ZM4.75 23.5C4.61 23.5 4.5 23.39 4.5 23.25V20.75H8V23.5H4.75ZM26.5 27.58C26.5 29.15 25.42 30.52 23.93 30.85C19.99 31.72 16 31.72 12.06 30.85C10.57 30.52 9.49 29.15 9.49 27.58V6.44L12.02 4.64C12.35 7.66 14.9 10.02 18 10.02C21.1 10.02 23.65 7.66 23.97 4.65L26.5 6.45V27.58ZM31.25 23.5H28V20.75H31.5V23.25C31.5 23.39 31.39 23.5 31.25 23.5Z" fill="#333333"/>
</svg>
