<svg width="36" height="36" viewBox="0 0 36 36" fill="none" xmlns="http://www.w3.org/2000/svg">
<path d="M13 23H29V27H13V23Z" fill="#2CB3FF"/>
<path d="M13 9H29V13H13V9Z" fill="#2CB3FF"/>
<path d="M32.25 31.5H30V23.58C30 22.71 29.21 22 28.25 22H23.97C23.98 21.92 24 21.84 24 21.75V14.25C24 14.16 23.99 14.08 23.97 14H28.25C29.21 14 30 13.21 30 12.25V4.75C30 3.79 29.21 3 28.25 3H13.75C12.79 3 12 3.79 12 4.75V12.25C12 12.34 12.01 12.42 12.03 12.5H7.75C6.79 12.5 6 13.29 6 14.25V21.75C6 22.71 6.79 23.5 7.75 23.5H12.01C12.01 23.53 12 23.55 12 23.58V31.5H3.75C3.34 31.5 3 31.84 3 32.25C3 32.66 3.34 33 3.75 33H32.25C32.66 33 33 32.66 33 32.25C33 31.84 32.66 31.5 32.25 31.5ZM13.75 4.5H28.25C28.39 4.5 28.5 4.61 28.5 4.75V7.75H13.5V4.75C13.5 4.61 13.61 4.5 13.75 4.5ZM13.5 12.25V9.25H28.5V12.25C28.5 12.39 28.39 12.5 28.25 12.5H22.25H13.75C13.61 12.5 13.5 12.39 13.5 12.25ZM7.75 14H13.75H22.25C22.39 14 22.5 14.11 22.5 14.25V17.25H7.5V14.25C7.5 14.11 7.61 14 7.75 14ZM7.5 21.75V18.75H22.5V21.75C22.5 21.89 22.39 22 22.25 22H13.75H7.75C7.61 22 7.5 21.89 7.5 21.75ZM22.25 23.5H28.25C28.41 23.5 28.49 23.57 28.5 23.58V26.75H13.5V23.6C13.51 23.58 13.6 23.5 13.75 23.5H22.25ZM13.5 28.25H28.5V31.5H13.5V28.25Z" fill="#333333"/>
</svg>
