<svg width="36" height="36" viewBox="0 0 36 36" fill="none" xmlns="http://www.w3.org/2000/svg">
<path opacity="0.6" d="M31.5 14C29.1667 13.8333 24.4 13.5 24 13.5L25 31L29 32.5L32.5 29.5L32 17L31.5 14Z" fill="#2CB3FF"/>
<path fill-rule="evenodd" clip-rule="evenodd" d="M4.75 4.5C4.61421 4.5 4.5 4.61421 4.5 4.75V28.25C4.5 30.0458 5.95421 31.5 7.75 31.5H24.7853C23.9881 30.6505 23.5 29.5075 23.5 28.25V28V13.75V13V4.75C23.5 4.61421 23.3858 4.5 23.25 4.5H4.75ZM28 33V32.9935C28.0828 32.9978 28.1661 33 28.25 33C30.8742 33 33 30.8742 33 28.25V14.75C33 13.7858 32.2142 13 31.25 13H25V4.75C25 3.78579 24.2142 3 23.25 3H4.75C3.78579 3 3 3.78579 3 4.75V28.25C3 30.8742 5.12579 33 7.75 33H28ZM25 28V14.5H31.25C31.3858 14.5 31.5 14.6142 31.5 14.75V28.25C31.5 30.0458 30.0458 31.5 28.25 31.5C26.4542 31.5 25 30.0458 25 28.25V28ZM7.75 10.25C7.33579 10.25 7 10.5858 7 11C7 11.4142 7.33579 11.75 7.75 11.75H20.25C20.6642 11.75 21 11.4142 21 11C21 10.5858 20.6642 10.25 20.25 10.25H7.75ZM7 18C7 17.5858 7.33579 17.25 7.75 17.25H20.25C20.6642 17.25 21 17.5858 21 18C21 18.4142 20.6642 18.75 20.25 18.75H7.75C7.33579 18.75 7 18.4142 7 18ZM7.75 24.25C7.33579 24.25 7 24.5858 7 25C7 25.4142 7.33579 25.75 7.75 25.75H20.25C20.6642 25.75 21 25.4142 21 25C21 24.5858 20.6642 24.25 20.25 24.25H7.75Z" fill="#333333"/>
</svg>
