<svg width="36" height="36" viewBox="0 0 36 36" fill="none" xmlns="http://www.w3.org/2000/svg">
<path opacity="0.6" d="M18 15C18.8333 14.6667 20.6 14 21 14H24L28 16L31.5 21.5L32.5 26.5L29.5 31L26 31.5L19.5 32.5L14 31L12 27.5V23C12.6667 21.5 14.1 18.4 14.5 18C14.9 17.6 17 15.8333 18 15Z" fill="#2CB3FF"/>
<path d="M30.9901 18.9499C30.9901 18.9299 31.0001 18.9199 31.0001 18.8999V15.7199L31.7601 16.3799C31.9001 16.4999 32.0801 16.5599 32.2501 16.5599C32.4601 16.5599 32.6701 16.4699 32.8201 16.2999C33.0901 15.9899 33.0601 15.5099 32.7501 15.2399L27.5801 10.7399C27.5801 10.5099 27.5501 10.2899 27.4601 10.0699C27.1801 9.41994 26.5501 8.99994 25.8401 8.99994H25.5601L19.1501 3.42994C18.5001 2.85994 17.5101 2.85994 16.8601 3.42994L3.26012 15.2499C2.95012 15.5199 2.91012 15.9999 3.19012 16.3099C3.34012 16.4799 3.55012 16.5699 3.76012 16.5699C3.93012 16.5699 4.11012 16.5099 4.25012 16.3899L5.00012 15.7199V31.2399C5.00012 32.2099 5.79012 32.9999 6.75012 32.9999H11.2501C11.6601 32.9999 12.0001 32.6599 12.0001 32.2499C12.0001 31.8399 11.6601 31.4999 11.2501 31.4999H6.75012C6.61012 31.4999 6.50012 31.3799 6.50012 31.2399V14.4199L17.8401 4.55994C17.9301 4.47994 18.0701 4.47994 18.1601 4.55994L23.2701 8.99994H18.1701C17.4601 8.99994 16.8301 9.41994 16.5501 10.0799C16.2801 10.7399 16.4301 11.4899 16.9301 11.9899L18.6701 13.7299C14.2901 15.6399 11.0001 20.9999 11.0001 25.5499C11.0001 28.9499 12.9101 32.9999 22.0001 32.9999C31.0901 32.9999 33.0001 28.9499 33.0001 25.5499C33.0001 23.3799 32.2501 21.0299 30.9901 18.9499ZM29.5001 16.9099C28.3101 15.5399 26.8901 14.4099 25.3301 13.7299L26.9001 12.1599L29.5001 14.4199V16.9099ZM17.9901 10.9199C17.8901 10.8199 17.9101 10.7099 17.9401 10.6499C17.9701 10.5899 18.0301 10.4999 18.1701 10.4999H25.8401C25.9901 10.4999 26.0501 10.5999 26.0701 10.6499C26.0901 10.6999 26.1201 10.8199 26.0201 10.9199L23.7301 13.2099C23.1601 13.0799 22.5901 12.9999 22.0001 12.9999C21.4101 12.9999 20.8401 13.0899 20.2701 13.2099L17.9901 10.9199ZM22.0001 31.4999C15.7001 31.4999 12.5001 29.4999 12.5001 25.5499C12.5001 22.0299 14.8401 17.8299 18.0401 15.7699C16.9801 17.3599 16.0001 19.7799 16.0001 23.3499C16.0001 23.7599 16.3401 24.0999 16.7501 24.0999C17.1601 24.0999 17.5001 23.7599 17.5001 23.3499C17.5001 17.1199 20.7301 14.8899 21.2801 14.5499C21.5201 14.5199 21.7601 14.4999 22.0001 14.4999C22.2201 14.4999 22.4401 14.5299 22.6601 14.5499C22.6601 14.5499 22.6601 14.5499 22.6701 14.5599C22.8301 14.6399 26.5101 16.6099 26.5101 23.2599C26.5101 23.6699 26.8501 24.0099 27.2601 24.0099C27.6701 24.0099 28.0001 23.6599 28.0001 23.2499C28.0001 19.7399 27.0501 17.3699 26.0101 15.8099C29.1801 17.8799 31.5001 22.0499 31.5001 25.5499C31.5001 29.4999 28.3001 31.4999 22.0001 31.4999Z" fill="#333333"/>
</svg>
