<svg width="36" height="36" viewBox="0 0 36 36" fill="none" xmlns="http://www.w3.org/2000/svg">
<path opacity="0.6" d="M15 24L14.5 31H21V25L20 23H17L15 24Z" fill="#2CB3FF"/>
<path d="M32.25 4H23.75C22.79 4 22 4.79 22 5.75V8.25C22 9.21 22.79 10 23.75 10H24.18L23.93 14.59L18.75 12.17C18.28 11.95 17.74 11.95 17.27 12.17L12.09 14.59L11.82 10H12.25C13.21 10 14 9.21 14 8.25V5.75C14 4.79 13.21 4 12.25 4H3.75C2.79 4 2 4.79 2 5.75V8.25C2 9.21 2.79 10 3.75 10H4.18L3.06 30.15C3.03 30.63 3.21 31.1 3.54 31.45C3.87 31.8 4.33 32 4.81 32H7H12.25H14H22H24.81H29H31.19C31.67 32 32.13 31.8 32.46 31.45C32.79 31.1 32.96 30.63 32.94 30.15L31.82 10H32.25C33.21 10 34 9.21 34 8.25V5.75C34 4.79 33.21 4 32.25 4ZM3.5 8.25V5.75C3.5 5.61 3.61 5.5 3.75 5.5H12.25C12.39 5.5 12.5 5.61 12.5 5.75V8.25C12.5 8.39 12.39 8.5 12.25 8.5H3.75C3.61 8.5 3.5 8.39 3.5 8.25ZM4.81 30.5C4.72 30.5 4.66 30.45 4.63 30.42C4.6 30.39 4.56 30.33 4.56 30.23L5.68 10H10.32L10.61 15.27L8.05 16.47C7.41 16.77 7 17.44 7 18.19V30.5H4.81ZM15.5 30.5V26C15.5 24.62 16.62 23.5 18 23.5C19.38 23.5 20.5 24.62 20.5 26V30.5H15.5ZM24.81 30.5H22V26C22 23.79 20.21 22 18 22C15.79 22 14 23.79 14 26V30.5H12.25H8.5V18.19C8.5 18 8.6 17.87 8.69 17.83L17.9 13.52C17.97 13.49 18.05 13.49 18.11 13.52L27.32 17.83C27.41 17.87 27.51 18 27.51 18.19V30.5H24.81ZM31.44 30.24C31.45 30.33 31.4 30.4 31.37 30.43C31.34 30.46 31.28 30.51 31.19 30.51H29V18.19C29 17.44 28.59 16.77 27.95 16.47L25.39 15.27L25.68 10H30.32L31.44 30.24ZM32.5 8.25C32.5 8.39 32.39 8.5 32.25 8.5H23.75C23.61 8.5 23.5 8.39 23.5 8.25V5.75C23.5 5.61 23.61 5.5 23.75 5.5H32.25C32.39 5.5 32.5 5.61 32.5 5.75V8.25Z" fill="#333333"/>
</svg>
