<svg width="36" height="36" viewBox="0 0 36 36" fill="none" xmlns="http://www.w3.org/2000/svg">
<path opacity="0.6" d="M18 15C18.8333 14.6667 20.6 14 21 14H24L28 16L31.5 21.5L32.5 26.5L29.5 31L26 31.5L19.5 32.5L14 31L12 27.5V23C12.6667 21.5 14.1 18.4 14.5 18C14.9 17.6 17 15.8333 18 15Z" fill="#2CB3FF"/>
<path d="M31.25 3H4.75C3.79 3 3 3.79 3 4.75V15.25C3 15.34 3.01 15.42 3.03 15.5H3V31C3 32.1 3.9 33 5 33C6.1 33 7 32.1 7 31V17H14.42C12.33 19.45 11 22.66 11 25.55C11 28.95 12.91 33 22 33C25.19 33 27.49 32.49 29.14 31.7C29.42 32.46 30.15 33 31 33C32.1 33 33 32.1 33 31V26V25V15.25V14V4.75C33 3.79 32.21 3 31.25 3ZM29.58 17H31.25C31.34 17 31.42 16.99 31.5 16.97V19.87C30.97 18.85 30.33 17.88 29.58 17ZM5.5 31C5.5 31.28 5.28 31.5 5 31.5C4.72 31.5 4.5 31.28 4.5 31V17H4.75H5.5V31ZM4.75 15.5C4.61 15.5 4.5 15.39 4.5 15.25V4.75C4.5 4.61 4.61 4.5 4.75 4.5H31.25C31.39 4.5 31.5 4.61 31.5 4.75V14V15.25C31.5 15.39 31.39 15.5 31.25 15.5H28.1C27.25 14.77 26.31 14.16 25.33 13.73L27.07 11.99C27.57 11.49 27.72 10.74 27.45 10.08C27.18 9.42 26.55 9 25.84 9H18.17C17.46 9 16.83 9.42 16.55 10.08C16.27 10.74 16.43 11.49 16.93 11.99L18.67 13.73C17.68 14.16 16.75 14.76 15.9 15.5H7H4.75ZM20.27 13.21L17.98 10.92C17.88 10.82 17.9 10.71 17.93 10.65C17.96 10.59 18.02 10.5 18.16 10.5H25.83C25.98 10.5 26.04 10.6 26.06 10.65C26.08 10.7 26.11 10.82 26.01 10.92L23.72 13.21C23.16 13.09 22.59 13 22 13C21.41 13 20.84 13.09 20.27 13.21ZM12.5 25.55C12.5 22.03 14.84 17.84 18.04 15.77C16.98 17.37 16 19.79 16 23.35C16 23.76 16.34 24.1 16.75 24.1C17.16 24.1 17.5 23.76 17.5 23.35C17.5 17.12 20.73 14.89 21.28 14.55C21.52 14.52 21.76 14.5 22 14.5C22.22 14.5 22.44 14.53 22.66 14.55C22.66 14.55 22.66 14.55 22.67 14.55C22.83 14.63 26.51 16.6 26.51 23.25C26.51 23.66 26.85 24 27.26 24C27.67 24 28 23.66 28 23.25C28 19.74 27.05 17.37 26.01 15.81C29.18 17.88 31.5 22.05 31.5 25.55C31.5 29.5 28.3 31.5 22 31.5C15.7 31.5 12.5 29.5 12.5 25.55ZM31 31.5C30.74 31.5 30.52 31.3 30.5 31.04C30.5 30.99 30.47 30.95 30.46 30.9C30.86 30.6 31.21 30.28 31.5 29.94V31C31.5 31.28 31.28 31.5 31 31.5Z" fill="#333333"/>
</svg>
