<svg width="36" height="36" viewBox="0 0 36 36" fill="none" xmlns="http://www.w3.org/2000/svg">
<circle opacity="0.6" cx="13" cy="16" r="7" fill="#2CB3FF"/>
<path d="M29.25 4H6.75C4.13 4 2 6.13 2 8.75V26.25C2 27.21 2.79 28 3.75 28H5C5 30.21 6.79 32 9 32C11.21 32 13 30.21 13 28H23C23 30.21 24.79 32 27 32C29.21 32 31 30.21 31 28H32.25C33.21 28 34 27.21 34 26.25V8.75C34 6.13 31.87 4 29.25 4ZM9 30.5C7.62 30.5 6.5 29.38 6.5 28H11.5C11.5 29.38 10.38 30.5 9 30.5ZM27 30.5C25.62 30.5 24.5 29.38 24.5 28H29.5C29.5 29.38 28.38 30.5 27 30.5ZM32.5 26.25C32.5 26.39 32.39 26.5 32.25 26.5H3.75C3.61 26.5 3.5 26.39 3.5 26.25V8.75C3.5 6.96 4.96 5.5 6.75 5.5H29.25C31.04 5.5 32.5 6.96 32.5 8.75V26.25Z" fill="#333333"/>
<path d="M13 8C8.59 8 5 11.59 5 16C5 20.41 8.59 24 13 24C17.41 24 21 20.41 21 16C21 11.59 17.41 8 13 8ZM9.75 10.38C10.5 9.94 11.35 9.65 12.25 9.55V22.46C11.35 22.36 10.5 22.06 9.75 21.63V10.38ZM13.75 9.55C14.65 9.65 15.5 9.95 16.25 10.38V21.62C15.5 22.06 14.65 22.35 13.75 22.45V9.55ZM6.5 16C6.5 14.29 7.17 12.74 8.25 11.58V20.42C7.17 19.26 6.5 17.71 6.5 16ZM17.75 20.42V11.58C18.83 12.74 19.5 14.29 19.5 16C19.5 17.71 18.83 19.26 17.75 20.42Z" fill="#333333"/>
<path d="M27 12C24.79 12 23 13.79 23 16C23 18.21 24.79 20 27 20C29.21 20 31 18.21 31 16C31 13.79 29.21 12 27 12ZM27 18.5C25.62 18.5 24.5 17.38 24.5 16C24.5 14.62 25.62 13.5 27 13.5C28.38 13.5 29.5 14.62 29.5 16C29.5 17.38 28.38 18.5 27 18.5Z" fill="#333333"/>
</svg>
