<svg width="36" height="36" viewBox="0 0 36 36" fill="none" xmlns="http://www.w3.org/2000/svg">
<rect opacity="0.6" x="16" y="25" width="4" height="8" fill="#2CB3FF"/>
<path fill-rule="evenodd" clip-rule="evenodd" d="M30.31 8H28V3.75C28 2.79 27.21 2 26.25 2H9.75C8.79 2 8 2.79 8 3.75V8H5.69C4.76 8 4 8.76 4 9.69V32.25C4 33.21 4.79 34 5.75 34H8.75H11.31H15H21H23H27.25H30.31C31.24 34 32 33.24 32 32.31V9.69C32 8.76 31.24 8 30.31 8ZM11.31 32.5H8.75H5.75C5.61 32.5 5.5 32.39 5.5 32.25V9.69C5.5 9.59 5.58 9.5 5.69 9.5H11.31C11.41 9.5 11.5 9.58 11.5 9.69V32.31C11.5 32.41 11.42 32.5 11.31 32.5ZM18 25.5C18.83 25.5 19.5 26.17 19.5 27V32.5H16.5V27C16.5 26.17 17.17 25.5 18 25.5ZM21 32.5V27C21 25.35 19.65 24 18 24C16.35 24 15 25.35 15 27V32.5H12.98C12.99 32.44 13 32.38 13 32.31V9.69C13 8.76 12.24 8 11.31 8H9.5V3.75C9.5 3.61 9.61 3.5 9.75 3.5H26.25C26.39 3.5 26.5 3.61 26.5 3.75V8H24.69C23.76 8 23 8.76 23 9.69V32.5H21ZM30.5 32.31C30.5 32.41 30.42 32.5 30.31 32.5H27.25H24.5V9.69C24.5 9.59 24.58 9.5 24.69 9.5H27.21C27.2141 9.5 27.2183 9.50172 27.2231 9.50373C27.23 9.50657 27.2383 9.51 27.25 9.51C27.2617 9.51 27.27 9.50657 27.2769 9.50373C27.2817 9.50172 27.2859 9.5 27.29 9.5H30.31C30.41 9.5 30.5 9.58 30.5 9.69V32.31ZM28.75 12.22H26.25C25.84 12.22 25.5 12.56 25.5 12.97C25.5 13.38 25.84 13.72 26.25 13.72H28.75C29.16 13.72 29.5 13.38 29.5 12.97C29.5 12.56 29.16 12.22 28.75 12.22ZM26.25 20.25H28.75C29.16 20.25 29.5 20.59 29.5 21C29.5 21.41 29.16 21.75 28.75 21.75H26.25C25.84 21.75 25.5 21.41 25.5 21C25.5 20.59 25.84 20.25 26.25 20.25ZM28.75 28.25H26.25C25.84 28.25 25.5 28.59 25.5 29C25.5 29.41 25.84 29.75 26.25 29.75H28.75C29.16 29.75 29.5 29.41 29.5 29C29.5 28.59 29.16 28.25 28.75 28.25ZM7.25 12.22H9.75C10.16 12.22 10.5 12.56 10.5 12.97C10.5 13.38 10.16 13.72 9.75 13.72H7.25C6.84 13.72 6.5 13.38 6.5 12.97C6.5 12.56 6.84 12.22 7.25 12.22ZM9.75 20.25H7.25C6.84 20.25 6.5 20.59 6.5 21C6.5 21.41 6.84 21.75 7.25 21.75H9.75C10.16 21.75 10.5 21.41 10.5 21C10.5 20.59 10.16 20.25 9.75 20.25ZM7.25 28.25H9.75C10.16 28.25 10.5 28.59 10.5 29C10.5 29.41 10.16 29.75 9.75 29.75H7.25C6.84 29.75 6.5 29.41 6.5 29C6.5 28.59 6.84 28.25 7.25 28.25Z" fill="#333333"/>
</svg>
