<svg width="36" height="36" viewBox="0 0 36 36" fill="none" xmlns="http://www.w3.org/2000/svg">
<path opacity="0.6" d="M14 22.5V31.5L22 32L22.5 26L22 21.5L19.5 19.5H16.5C16.1 19.5 14.6667 21.5 14 22.5Z" fill="#2CB3FF"/>
<path d="M32.7399 15.2451L19.1399 3.432C18.4799 2.856 17.5199 2.856 16.8599 3.432L3.25994 15.2451C2.94994 15.5179 2.90994 15.9928 3.17994 16.3162C3.44994 16.6295 3.91994 16.6699 4.23994 16.3971L4.99994 15.7301V31.2316C4.99994 32.2017 5.78994 33 6.74994 33H13.8199H22.1799H29.2499C30.2099 33 30.9999 32.2017 30.9999 31.2316V15.7301L31.7599 16.3869C31.8999 16.5082 32.0799 16.5688 32.2499 16.5688C32.4599 16.5688 32.6699 16.4779 32.8199 16.3061C33.0899 15.9928 33.0499 15.5179 32.7399 15.2451ZM14.4999 31.4741V23.8952C14.4999 21.9448 16.0699 20.3583 17.9999 20.3583C19.9299 20.3583 21.4999 21.9448 21.4999 23.8952V31.4741H14.4999ZM29.4999 31.2215C29.4999 31.3629 29.3899 31.4741 29.2499 31.4741H22.9999V23.8952C22.9999 21.1061 20.7599 18.8425 17.9999 18.8425C15.2399 18.8425 12.9999 21.1061 12.9999 23.8952V31.4741H6.74994C6.60994 31.4741 6.49994 31.3629 6.49994 31.2215V14.4265L17.8399 4.57389C17.9299 4.49305 18.0699 4.49305 18.1699 4.57389L29.5099 14.4265V31.2215H29.4999Z" fill="#333333"/>
</svg>
