<svg width="36" height="36" viewBox="0 0 36 36" fill="none" xmlns="http://www.w3.org/2000/svg">
<g opacity="0.6">
<path d="M18 7V3H26V7H18Z" fill="#2CB3FF"/>
<path d="M14.5 27V32.5H21.5V27L19 24.5H17L14.5 27Z" fill="#2CB3FF"/>
</g>
<path fill-rule="evenodd" clip-rule="evenodd" d="M27 18H32.24C33.21 18 34 18.79 34 19.76V32.24C34 33.21 33.21 34 32.24 34H27H25.5H22H14H10.5H9H3.76C2.79 34 2 33.21 2 32.23V19.76C2 18.79 2.79 18 3.76 18H9V17.03C9 16.44 9.29 15.9 9.78 15.58L17.25 10.6V8V4.09V3.75C17.25 2.79 18.04 2 19 2H25.25C26.21 2 27 2.79 27 3.75V6.25C27 7.21 26.21 8 25.25 8H18.75V10.6L26.22 15.57C26.71 15.9 27 16.44 27 17.03V18ZM19 3.5C18.86 3.5 18.75 3.61 18.75 3.75V4.09V6.5H25.25C25.39 6.5 25.5 6.39 25.5 6.25V3.75C25.5 3.61 25.39 3.5 25.25 3.5H19ZM3.76 32.5H9V19.5H3.76C3.62 19.5 3.5 19.62 3.5 19.76V32.24C3.5 32.38 3.62 32.5 3.76 32.5ZM15.5 28V32.5H20.5V28C20.5 26.62 19.38 25.5 18 25.5C16.62 25.5 15.5 26.62 15.5 28ZM22 32.5H25.5V18V17.03C25.5 16.94 25.46 16.87 25.39 16.82L18 11.9L10.61 16.82C10.54 16.87 10.5 16.95 10.5 17.03V18V32.5H14V28C14 25.79 15.79 24 18 24C20.21 24 22 25.79 22 28V32.5ZM32.24 32.5C32.38 32.5 32.5 32.38 32.5 32.24V19.76C32.5 19.62 32.38 19.5 32.24 19.5H27V32.5H32.24ZM15 18C15 16.35 16.35 15 18 15C19.65 15 21 16.35 21 18C21 19.65 19.65 21 18 21C16.35 21 15 19.65 15 18ZM16.5 18C16.5 18.83 17.17 19.5 18 19.5C18.83 19.5 19.5 18.83 19.5 18C19.5 17.17 18.83 16.5 18 16.5C17.17 16.5 16.5 17.17 16.5 18Z" fill="#333333"/>
</svg>
